<svg version="1.1" viewBox="0.0 0.0 400.0 240.0" fill="none" stroke="none" stroke-linecap="square" stroke-miterlimit="10" xmlns:xlink="http://www.w3.org/1999/xlink" xmlns="http://www.w3.org/2000/svg"><clipPath id="p.0"><path d="m0 0l400.0 0l0 240.0l-400.0 0l0 -240.0z" clip-rule="nonzero"/></clipPath><g clip-path="url(#p.0)"><defs><linearGradient id="p.1" gradientUnits="userSpaceOnUse" gradientTransform="matrix(19.035316335350934 0.0 0.0 19.035316335350934 0.0 0.0)" spreadMethod="pad" x1="-4.052474168997374" y1="1.4751199993489523" x2="2.4585334220167003" y2="19.362267567830504"><stop offset="0.0" stop-color="#2d0549"/><stop offset="1.0" stop-color="#1e0033"/></linearGradient></defs><path fill="url(#p.1)" d="m0 0l400.0 0l0 240.0l-400.0 0z" fill-rule="evenodd"/><g filter="url(#shadowFilter-p.2)"><use xlink:href="#p.2" transform=""/></g><defs><filter id="shadowFilter-p.2" filterUnits="userSpaceOnUse"><feGaussianBlur in="SourceAlpha" stdDeviation="12.5" result="blur"/><feComponentTransfer in="blur" color-interpolation-filters="sRGB"><feFuncR type="linear" slope="0" intercept="0.1882353"/><feFuncG type="linear" slope="0" intercept="0.0"/><feFuncB type="linear" slope="0" intercept="0.49019608"/><feFuncA type="linear" slope="0.4" intercept="0"/></feComponentTransfer></filter></defs><g id="p.2"><path fill="#000000" fill-opacity="0.0" d="m-28.625675 -114.97595l475.71652 -33.543304l35.46457 502.92914l-475.71652 33.543304z" fill-rule="evenodd"/><path fill="#000000" d="m18.003351 -53.69766q6.3124504 -0.44509888 10.847174 1.4437485q4.5492096 1.8721619 7.5621758 6.170887q3.0129662 4.298725 4.4273453 11.028408l2.1017952 -18.396519l15.8980255 -1.1209869l-7.2768936 35.19274l4.6765404 16.117235q1.2209396 3.9864967 2.9862938 5.4753904q1.7798424 1.4722083 4.7037735 2.064892l-4.9042435 13.973305q-5.520054 -0.5349388 -9.230499 -2.9518194q-3.7104492 -2.4168816 -5.293377 -8.649103l-1.8938599 -7.087471q-1.2937431 6.3097496 -3.8828545 10.909501q-2.574623 4.583066 -6.709381 7.2555094q-4.1202717 2.655758 -9.90279 3.06349q-12.235247 0.8627205 -19.917324 -8.119195q-7.682079 -8.9819145 -8.938332 -26.79705q-0.76935863 -10.910408 1.9192514 -19.652414q2.6886098 -8.742012 8.456625 -14.020161q5.782502 -5.294834 14.370556 -5.900387zm3.1208973 12.9375305q-5.5331364 0.39014816 -8.095964 6.6953964q-2.5639277 6.289667 -1.6912546 18.665186q0.89025784 12.624901 4.2095575 17.935837q3.3193016 5.3109355 8.431608 4.950461q2.072977 -0.14616776 4.057831 -1.3199325q1.9848518 -1.1737647 3.7930546 -3.964108q1.8071041 -2.8059297 3.2019634 -7.68174q1.3948555 -4.87581 2.2722626 -12.424971q-2.102581 -8.936747 -4.5749245 -14.0097885q-2.4567585 -5.0741425 -5.308159 -7.081684q-2.8514004 -2.0075378 -6.2959747 -1.7646561zm79.66284 -47.314137q8.775085 -0.6187439 15.548843 2.1460342q6.773758 2.7647858 10.8377 8.1955185q4.0628433 5.4151382 4.583809 12.803047q0.4319458 6.125412 -1.45578 10.675709q-1.8888245 4.53471 -5.85363 7.6180916q-3.9492264 3.082283 -9.72065 4.7579994q4.283638 0.10521698 8.90258 1.18927q4.6334305 1.0673676 8.656517 3.6971626q4.0219727 2.6142082 6.7206116 7.3423557q2.7131348 4.711462 3.2428894 12.224056q0.62867737 8.915362 -2.685089 15.900115q-3.3137665 6.9847527 -9.735413 11.212524q-6.421646 4.2277718 -15.134384 4.8421164q-7.0450134 0.4967518 -13.72525 -2.274622q-6.680237 -2.7713747 -12.609947 -8.227187l3.152504 -8.383123q4.0226746 3.0684087 8.3439865 4.5963726q4.3213043 1.5279636 9.776512 1.1433109q4.3797455 -0.30882108 7.8048325 -2.3829916q3.4406738 -2.0752692 5.29113 -6.0433774q1.8649521 -3.9847927 1.4472961 -9.907586q-0.63746643 -9.0400505 -6.0140533 -13.093796q-5.3621063 -4.070429 -13.731949 -3.4802608l-5.314926 0.37475967l0.42358398 -12.87418l4.1147842 -0.29013824q3.397812 -0.23958206 5.933182 -2.04739q2.5498505 -1.8244896 3.8454056 -5.2209015q1.3111343 -3.3975105 0.9495392 -8.525402q-0.4868927 -6.904728 -3.8872147 -10.0326805q-3.4014206 -3.143547 -8.716354 -2.7687836q-5.579895 0.39344788 -8.404198 4.10128q-2.8087234 3.7067337 -2.2888565 11.079052l7.048424 99.954926l-17.431374 4.0329247l-7.197899 -102.07466q-0.6330719 -8.977707 2.6491241 -15.521645q3.282196 -6.5439453 9.656685 -10.329803q6.3889694 -3.8025436 14.977028 -4.4080963zm102.56523 21.573723l17.89389 2.7482147l-23.604752 67.092064q-2.500183 7.1936703 -2.4020386 14.360767q0.11482239 7.1815853 2.4823608 16.099648l-13.769791 2.6469498q-2.608612 -4.562193 -3.7962952 -9.631836q-1.1865692 -5.054058 -1.00354 -10.455309q0.18411255 -5.385664 1.7420349 -10.836868q-3.175949 -9.941864 -6.969345 -19.088327q-3.7789154 -9.16315 -7.9607544 -17.15443q-4.166275 -7.99238 -8.636658 -14.522245q-4.4714966 -6.545452 -9.072769 -11.155106l16.984756 -7.478794q4.4459076 5.2941513 8.754654 13.307812q4.308731 8.01366 8.097839 18.2099q3.8046875 10.195143 6.5845795 22.295208l14.675827 -56.437653zm61.315735 -32.721893q7.7775574 -0.5484085 13.8909 1.2917862q6.113312 1.8401871 10.952881 5.164276l-7.8253784 10.310318q-4.066559 -2.5797348 -7.842926 -3.488243q-3.7608032 -0.90960693 -8.015869 -0.609581q-5.0499573 0.3560791 -7.54776 2.4745178q-2.4822083 2.1173325 -2.256897 5.312523q0.16815186 2.3847046 1.4435425 4.033455q1.2909851 1.6476517 4.318817 3.0475311q3.042328 1.3831863 8.585754 3.1382523q9.716797 3.183815 16.159637 7.475651q6.458435 4.290741 9.8489685 10.834091q3.406128 6.5422516 4.1051636 16.45514q0.52975464 7.512594 -1.3130188 14.033356q-1.8438416 6.5051775 -5.843811 11.53335q-3.9854736 5.011486 -9.960724 8.017333q-5.9607544 2.9891615 -13.675964 3.5331705q-10.505188 0.74073124 -18.26648 -3.1448653q-7.76239 -3.9011824 -12.267548 -11.368424q-4.5062866 -7.482826 -5.2042084 -17.380125q-0.5110626 -7.247629 1.6017761 -13.270529q2.127304 -6.039585 6.4943542 -10.749039q4.381531 -4.7261353 10.521637 -7.8375893q-7.6648865 -3.4068184 -10.742783 -7.293705q-3.07901 -3.9024734 -3.501068 -9.887611q-0.41654968 -5.9072037 2.5288544 -10.563408q2.9453888 -4.6561966 8.9917755 -7.5417557q6.045273 -2.9011383 14.820374 -3.5198746zm-1.2633667 42.725925q-7.0691833 5.0409546 -9.429382 11.331921q-2.3612976 6.275379 -1.7612 14.785496q0.7407837 10.505163 4.9796753 15.751258q4.254486 5.244995 11.424164 4.7394514q7.3255615 -0.51653385 10.82959 -6.136286q3.5184937 -5.6364384 2.749115 -16.546844q-0.5011902 -7.107353 -2.311798 -11.45953q-1.8106384 -4.3521767 -5.753357 -7.175598q-3.9438477 -2.8390121 -10.726807 -5.2898674zm98.02731 20.750244l-12.70285 0.8956909q-7.4502563 0.5253258 -10.511749 3.090767q-3.0625916 2.5498524 -2.7394714 7.132223q0.33303833 4.7226486 4.6423645 7.191284q4.32489 2.4675379 12.180389 1.9136381q6.7800293 -0.47806835 12.307983 -2.4968843q5.5424194 -2.0355015 10.136383 -5.3042183l8.96283 9.596476q-5.5167236 4.398923 -13.55484 7.4719076q-8.0225525 3.0718853 -18.340698 3.7994285q-9.569977 0.67479074 -17.227264 -1.2914929q-7.657257 -1.9662838 -12.289703 -6.57374q-4.633545 -4.623043 -5.1358337 -11.745981q-0.56274414 -7.9801826 3.6616516 -12.49161q4.224365 -4.511425 13.502716 -6.4344177q-8.29364 -1.2165451 -12.340088 -5.0664673q-4.0475464 -3.865509 -4.46521 -9.7883q-0.43084717 -6.109829 3.2146606 -10.611763q3.6610718 -4.5030365 10.289429 -7.1320114q6.642853 -2.6456604 15.012695 -3.2358322q7.71521 -0.54400635 15.443329 0.6497574q7.7437134 1.1926651 14.058258 4.5537186l-7.2866516 10.397644q-4.216217 -2.0366173 -9.280762 -2.7759705q-5.0656433 -0.7549515 -10.115601 -0.39887238q-6.655365 0.46928024 -10.167572 2.8628693q-3.4977112 2.3769035 -3.1877747 6.7722397q0.27697754 3.9277458 3.677002 6.1628876q3.3988953 2.219551 9.58667 1.7832451l13.622437 -0.96053314l-0.9527283 12.034317z" fill-rule="nonzero"/><path fill="#000000" d="m65.7727 77.06314l2.842331 10.764236q-13.654762 12.05278 -22.25008 21.884819q-8.595314 9.8320465 -12.452499 18.217865q-3.8571854 8.385811 -3.3032455 16.24131q0.39347076 5.579895 2.367546 8.91806q1.9740791 3.3381653 6.226948 5.4505157q4.267357 2.0956726 11.365726 4.1326904q8.098991 2.2327576 13.1199875 4.353592q5.036579 2.119751 7.5197105 5.124405q2.4820251 2.9890747 2.829338 7.9143524q0.5726242 8.120453 -4.656563 14.598053q-5.2136 6.4765015 -16.557312 12.429749l-7.3555717 -10.57132q4.7952766 -3.0792847 7.782543 -6.031082q3.0028496 -2.952896 2.7115936 -7.083267q-0.13079071 -1.8547668 -1.2441177 -2.9823914q-1.1133232 -1.1276093 -3.5883522 -2.018219q-2.4594421 -0.89172363 -6.822212 -2.119156q-10.295864 -2.955017 -17.191515 -6.3377533q-6.8811646 -3.3994293 -10.593222 -8.948944q-3.6964693 -5.5506287 -4.3537216 -14.871231q-0.6418648 -9.102402 3.180149 -17.986984q3.8209152 -8.900169 12.767723 -18.412384q8.945709 -9.527809 23.774845 -20.253654q-1.8143005 0.9267807 -5.3082275 1.5803986q-3.4950294 0.63803864 -7.9761887 1.063652q-4.4822617 0.41003418 -9.142567 0.73863983l-16.085064 1.1341705l1.0663204 -13.311089l51.325695 -3.6190338zm60.24182 22.020462q9.710274 -0.6846771 15.006828 4.455513q5.312149 5.139084 6.010071 15.036385l5.548172 78.67963l-17.419388 3.0922546l-5.1953735 -73.67643q-0.37478638 -5.314926 -1.2725067 -8.494034q-0.8977127 -3.1791 -2.8691864 -4.481163q-1.9558868 -1.303154 -5.6030807 -1.04599q-2.8678818 0.2022171 -5.409645 1.697197q-2.527275 1.478302 -4.6634903 3.8375244q-2.1373138 2.3436356 -3.877678 5.207512l3.4983902 49.611176l-17.550179 1.2374878l-3.4884949 -49.4709q-0.41764832 -5.922798 -1.7965546 -11.260902q-1.3800049 -5.3536987 -2.7025528 -9.004089l16.132713 -3.3461304q0.733757 1.0760574 1.4535294 2.8423004q0.73426056 1.7495651 1.3759079 3.7406158q0.6416397 1.9910507 0.98054504 3.909462q4.33358 -5.850548 9.986099 -8.9902725q5.6681137 -3.140831 11.855873 -3.5771408z" fill-rule="nonzero"/><path fill="#30007d" d="m193.72371 66.17718q10.505173 -0.7407303 18.227295 4.5886993q7.7377167 5.3283234 12.356506 16.405891q4.633255 11.060883 5.7960815 27.551186q1.1540375 16.365608 -1.8980408 28.17202q-3.0364838 11.805313 -9.934509 18.384918q-6.8835297 6.5629272 -17.388702 7.30365q-10.442825 0.7363434 -18.219406 -4.6988983q-7.7610016 -5.436325 -12.435318 -16.635284q-4.6587524 -11.200073 -5.8259735 -27.752716q-1.1485443 -16.287674 1.8967438 -27.9683q3.0608673 -11.681725 10.01445 -18.13993q6.968048 -6.4748993 17.410873 -7.211235zm19.420105 55.490242l-31.12584 2.1947174q1.2056885 12.21106 3.5359497 19.267761q2.3302765 7.0567017 5.9312286 9.919891q3.6154327 2.8464966 8.478363 2.5036163q4.9252625 -0.34729004 8.027527 -3.6674652q3.1011658 -3.3357697 4.386917 -10.64743q1.3013306 -7.3127747 0.7658539 -19.57109zm-18.501266 -42.4601q-4.9252777 0.34729004 -8.057617 3.6852493q-3.133438 3.3223724 -4.5048065 10.530434q-1.3557892 7.2069626 -0.7623596 19.398537l31.110245 -2.1936188q-1.1856842 -12.149818 -3.4770966 -19.09961q-2.2914124 -6.949791 -5.8444977 -9.80069q-3.5386047 -2.8675842 -8.463867 -2.5203018z" fill-rule="nonzero"/><path fill="#000000" d="m265.20773 104.572464l-22.413132 1.5803757l0.59436035 -13.340469l38.435806 -2.7101593l3.525879 50.000847q0.3187256 4.5200195 3.1826172 6.260391q2.8638916 1.740387 7.383911 1.4216614q2.7276 -0.19232178 5.3644714 -1.0048065q2.6513977 -0.8291626 5.126007 -1.9434814l5.0991516 11.670258q-3.0152283 1.8886261 -7.8804626 3.5317688q-4.8652344 1.643158 -10.850372 2.0651703q-10.770111 0.7594147 -17.504608 -4.7806244q-6.7345276 -5.540039 -7.4664917 -15.920517l-2.5971375 -36.830414zm108.576996 -22.896759l15.010712 6.287895l-22.628113 28.74089l17.682312 17.518425q3.4335022 3.376236 6.1307373 4.752426q2.7128296 1.3751068 6.0843506 1.8735657l-5.000366 14.387344q-4.475067 -0.15437317 -7.9472046 -1.413269q-3.4565735 -1.2599945 -6.521179 -3.8477325q-3.0490417 -2.5888214 -6.4039917 -6.628479l-22.652191 -24.467323l26.244934 -37.203743zm-32.781982 4.253807q2.0861816 4.927971 3.5449219 11.842491q1.4587402 6.9145203 1.9654236 14.099808l3.118103 44.218323l-17.550201 1.2374725l-3.2400818 -45.948395q-0.44073486 -6.250107 -1.568573 -12.248131q-1.1289368 -6.0136185 -3.289856 -12.001457l17.020264 -1.2001114z" fill-rule="nonzero"/><path fill="#000000" d="m36.39821 267.80478l5.9851418 -0.4220276q-2.2594337 -5.385681 -5.1085396 -8.693451q-2.8335228 -3.3089142 -7.296007 -5.0618744q-4.463583 -1.7685547 -11.71921 -2.25943l1.4452896 -12.601624q9.202616 0.5572357 15.828999 2.5648804q6.6263847 2.0076447 11.372929 6.0118256q4.762127 4.0030823 8.259575 10.507568q3.497448 6.504486 6.4533806 15.991943q4.769058 14.763641 9.008469 25.570343q4.238312 10.791107 8.72879 18.494354q4.4904785 7.7032166 9.885857 13.134064l-17.08007 7.0155945q-5.18647 -6.2444153 -9.366119 -14.204529q-4.1640663 -7.9611816 -7.836872 -18.729523q-3.6572227 -10.76944 -7.300968 -25.34613l-13.210499 61.002136l-17.566574 -2.7713013l19.51643 -70.20282zm118.764404 -8.374207l3.2686768 46.353638q0.47810364 6.7800293 1.5925446 12.810333q1.1300201 6.0292053 2.4268036 11.091156l-15.838379 2.8554688q-0.7865143 -1.8242188 -1.6622467 -4.6915894q-0.8768463 -2.882965 -1.4107819 -5.7901q-2.5873108 5.069519 -6.6647186 8.33316q-4.0785065 3.2480164 -9.003777 3.5953064q-4.3174057 0.30444336 -7.0214386 -0.9459839q-2.6873398 -1.2359009 -5.735573 -4.7019653q1.957695 4.2164917 3.1599503 7.938019q1.2022552 3.721527 1.5495682 8.64682l1.0551147 14.96283l-16.702415 3.041687l-7.0099564 -99.40939l17.503418 -1.2341919l2.8081589 39.822998q0.4319458 6.1254272 1.2575302 10.280762q0.8255844 4.155365 2.8353271 6.222229q2.024231 2.0502014 6.139015 1.7600708q4.4576797 -0.31433105 7.804329 -3.056488q3.3466492 -2.7421875 5.6133423 -6.583008l-3.530243 -50.0632l17.56575 -1.2385559zm45.595947 67.553986q-2.8530273 -10.027283 -6.394043 -20.037384q-3.541031 -10.010101 -7.4871826 -18.879517q-3.9316864 -8.886108 -8.151398 -15.637268q-4.2197113 -6.7511597 -8.534836 -10.190552l16.024612 -6.878525q4.886017 4.8715363 9.285675 13.286026q4.4152527 8.413422 8.301468 19.542633q3.8851166 11.113647 6.957962 24.258179l14.349503 -59.95465l17.291718 2.649704l-21.428055 70.41594l-20.215424 1.425415zm91.67131 -107.37001q8.104889 -0.5714874 15.121307 0.9700775q7.0320435 1.540451 12.971222 5.131607l-7.0983276 10.18074q-4.0278625 -2.2535248 -8.841736 -3.2141876q-4.8138733 -0.96066284 -9.53653 -0.6276703q-6.9203186 0.48796082 -10.939758 3.684845q-4.020569 3.1812897 -3.6315002 8.698837q0.4550171 6.4527283 4.7364807 8.970322q4.295929 2.5009155 11.683838 1.9799805l14.027679 -0.9891052l-0.8442383 12.68454l-13.108063 0.9242554q-6.0474854 0.42642212 -10.273163 2.6980286q-4.2101135 2.2705078 -6.2840576 5.9567566q-2.0739746 3.6862488 -1.7321777 8.5336q0.4220581 5.985138 2.9572449 9.283722q2.5351868 3.2986145 7.9947815 5.419861q5.4596252 2.1212463 14.869659 4.7314453q6.9493103 1.9222412 11.611816 4.0683594q4.6614075 2.1305237 7.1320496 5.4023438q2.470642 3.2718506 2.8553162 8.727051q0.5627136 7.9801636 -4.7287903 14.462158q-5.2915344 6.4819946 -16.494965 12.425354l-7.3711853 -10.570221q2.7645874 -1.6673279 5.188843 -3.717926q2.425354 -2.0350037 3.848114 -4.516205q1.4394226 -2.4667358 1.2283936 -5.45932q-0.1362915 -1.9326782 -1.0981445 -3.1336365q-0.94625854 -1.2020569 -3.1095886 -2.1146545q-2.1632996 -0.91259766 -5.9829407 -1.9903564q-8.393829 -2.4155884 -15.049896 -4.844055q-6.657135 -2.4440613 -11.425568 -5.6478577q-4.7684326 -3.2037964 -7.458069 -8.02655q-2.6740723 -4.8238525 -3.1851501 -12.071503q-0.40335083 -5.720154 1.2648621 -10.051361q1.6682129 -4.3311768 4.722412 -7.444336q3.053131 -3.1287537 6.890045 -5.13797q3.836914 -2.0092163 7.77536 -3.0231323q-4.8970947 -1.2524109 -8.96405 -3.3935242q-4.0680237 -2.1567078 -6.648651 -5.6557465q-2.580658 -3.4990234 -2.941162 -8.611328q-0.4923706 -6.982666 3.5022888 -12.308075q4.0091553 -5.342087 10.956451 -8.557449q6.9617615 -3.2320557 15.409546 -3.827713zm74.11972 22.905914q10.505157 -0.7407379 18.139374 3.3417969q7.6486816 4.0658264 12.055328 12.135239q4.422241 8.068329 5.2102966 19.243683q0.8067322 11.440338 -2.4673767 20.098328q-3.259613 8.641296 -10.260925 13.755798q-6.986847 5.097809 -17.492004 5.8385315q-10.442841 0.7363281 -18.11612 -3.2337952q-7.6576843 -3.971222 -12.111084 -12.037323q-4.4389343 -8.082794 -5.2544556 -19.647827q-0.7781372 -11.035095 2.4803772 -19.691986q3.2740784 -8.6579895 10.316681 -13.853714q7.0570984 -5.2124023 17.499908 -5.9487305zm0.93310547 13.232758q-7.3723145 0.51982117 -10.596161 6.558426q-3.208252 6.0374756 -2.3355713 18.412994q0.8814392 12.500214 4.8718567 17.99878q3.9904175 5.4985657 11.378326 4.977661q7.3723145 -0.5198364 10.551605 -6.5239563q3.1948853 -6.0052185 2.3035278 -18.64569q-0.8671875 -12.297607 -4.873169 -17.795074q-3.9904175 -5.4985657 -11.300415 -4.983139z" fill-rule="nonzero"/></g></g></svg>
