<svg version="1.1" viewBox="0.0 0.0 2500.0 1500.0" fill="none" stroke="none" stroke-linecap="square" stroke-miterlimit="10" xmlns:xlink="http://www.w3.org/1999/xlink" xmlns="http://www.w3.org/2000/svg"><clipPath id="p.0"><path d="m0 0l2500.0 0l0 1500.0l-2500.0 0l0 -1500.0z" clip-rule="nonzero"/></clipPath><g clip-path="url(#p.0)"><defs><linearGradient id="p.1" gradientUnits="userSpaceOnUse" gradientTransform="matrix(52.497637815258564 0.0 0.0 52.497637815258564 0.0 0.0)" spreadMethod="pad" x1="-14.069140088437146" y1="11.80456266174335" x2="19.67426980092641" y2="52.02127890288453"><stop offset="0.0" stop-color="#330066"/><stop offset="1.0" stop-color="#4d1980"/></linearGradient></defs><path fill="url(#p.1)" d="m0 0l2500.0 0l0 1500.0l-2500.0 0z" fill-rule="evenodd"/><defs><linearGradient id="p.2" gradientUnits="userSpaceOnUse" gradientTransform="matrix(39.32288945961626 0.0 0.0 39.32288945961626 0.0 0.0)" spreadMethod="pad" x1="33.75907847560829" y1="-9.15736984424283" x2="3.635009554702096" y2="16.117718822301825"><stop offset="0.0" stop-color="#1e1e1e"/><stop offset="1.0" stop-color="#000000"/></linearGradient></defs><path fill="url(#p.2)" d="m1249.957 275.79346c38.113647 0 69.93762 11.734497 95.471924 35.20352c25.721924 23.28125 45.8114 63.64792 60.26831 121.10007c14.456909 57.264343 23.093506 136.96509 25.90979 239.10223l-363.30017 0c2.2530518 -102.137146 10.701904 -181.83789 25.346558 -239.10223c14.832397 -57.45215 35.391235 -97.81882 61.676514 -121.10007c26.285278 -23.469025 57.827637 -35.20352 94.627075 -35.20352zm181.65002 554.5257c-2.8162842 101.57379 -11.452881 181.08685 -25.90979 238.539c-14.456909 57.264404 -34.64026 97.44324 -60.55005 120.53674c-25.909668 23.093506 -57.63977 34.64026 -95.190186 34.64026c-36.79944 0 -68.52954 -11.546753 -95.19031 -34.64026c-26.473022 -23.093506 -47.125854 -63.27234 -61.958252 -120.53674c-14.644653 -57.45215 -23.375122 -136.96521 -26.191406 -238.539zm-181.65002 -750.82043c-93.31287 0 -173.29517 25.534271 -239.94714 76.602844c-66.65198 51.068558 -117.72058 126.16937 -153.20569 225.30246c-35.48517 99.13309 -53.227722 221.35968 -53.227722 366.67975c0 147.7608 17.742554 271.58325 53.227722 371.4674c35.485107 99.69641 86.55371 174.89111 153.20569 225.5841c66.65198 50.692993 146.63428 76.03955 239.94714 76.03955c94.06372 0 174.23389 -25.628174 240.51038 -76.8844c66.46423 -51.256348 117.34497 -127.01428 152.64233 -227.27393c35.48523 -100.447266 53.227783 -223.9881 53.227783 -370.6225c0 -146.4466 -17.55481 -269.1426 -52.66455 -368.08792c-35.10962 -98.94531 -85.896484 -173.48288 -152.36072 -223.61267c-66.27649 -50.129807 -146.72827 -75.1947 -241.35522 -75.1947z" fill-rule="evenodd"/><path stroke="#000000" stroke-width="12.0" stroke-linejoin="round" stroke-linecap="butt" d="m1249.957 275.79346c38.113647 0 69.93762 11.734497 95.471924 35.20352c25.721924 23.28125 45.8114 63.64792 60.26831 121.10007c14.456909 57.264343 23.093506 136.96509 25.90979 239.10223l-363.30017 0c2.2530518 -102.137146 10.701904 -181.83789 25.346558 -239.10223c14.832397 -57.45215 35.391235 -97.81882 61.676514 -121.10007c26.285278 -23.469025 57.827637 -35.20352 94.627075 -35.20352zm181.65002 554.5257c-2.8162842 101.57379 -11.452881 181.08685 -25.90979 238.539c-14.456909 57.264404 -34.64026 97.44324 -60.55005 120.53674c-25.909668 23.093506 -57.63977 34.64026 -95.190186 34.64026c-36.79944 0 -68.52954 -11.546753 -95.19031 -34.64026c-26.473022 -23.093506 -47.125854 -63.27234 -61.958252 -120.53674c-14.644653 -57.45215 -23.375122 -136.96521 -26.191406 -238.539zm-181.65002 -750.82043c-93.31287 0 -173.29517 25.534271 -239.94714 76.602844c-66.65198 51.068558 -117.72058 126.16937 -153.20569 225.30246c-35.48517 99.13309 -53.227722 221.35968 -53.227722 366.67975c0 147.7608 17.742554 271.58325 53.227722 371.4674c35.485107 99.69641 86.55371 174.89111 153.20569 225.5841c66.65198 50.692993 146.63428 76.03955 239.94714 76.03955c94.06372 0 174.23389 -25.628174 240.51038 -76.8844c66.46423 -51.256348 117.34497 -127.01428 152.64233 -227.27393c35.48523 -100.447266 53.227783 -223.9881 53.227783 -370.6225c0 -146.4466 -17.55481 -269.1426 -52.66455 -368.08792c-35.10962 -98.94531 -85.896484 -173.48288 -152.36072 -223.61267c-66.27649 -50.129807 -146.72827 -75.1947 -241.35522 -75.1947z" fill-rule="evenodd"/></g></svg>