<svg version="1.1" viewBox="0.0 0.0 1072.9238845144357 1412.8713910761155" fill="none" stroke="none" stroke-linecap="square" stroke-miterlimit="10" xmlns:xlink="http://www.w3.org/1999/xlink" xmlns="http://www.w3.org/2000/svg"><clipPath id="p.0"><path d="m0 0l1072.9238 0l0 1412.8713l-1072.9238 0l0 -1412.8713z" clip-rule="nonzero"/></clipPath><g clip-path="url(#p.0)"><path fill="#000000" fill-opacity="0.0" d="m0 0l1072.9238 0l0 1412.8713l-1072.9238 0z" fill-rule="evenodd"/><path fill="#000000" d="m554.3508 247.351c82.798706 0 144.75684 31.260696 185.87457 93.78215c34.921875 52.946075 56.043945 128.98566 63.366333 228.11874c-42.15973 -0.25354004 -82.01929 -0.38024902 -119.57861 -0.38024902c-212.83621 0 -351.8105 4.069519 -416.9229 12.208618c10.701874 -86.17819 38.019806 -159.96475 81.9538 -221.35968c54.07257 -74.913055 122.50821 -112.36958 205.30682 -112.36958zm130.88666 545.37274c35.71985 0 73.481445 0.1408081 113.28491 0.42242432c-27.036316 241.6369 -116.87567 362.45538 -269.51807 362.45538c-148.69962 0 -235.44107 -116.31238 -260.22433 -348.9372c12.954895 -1.6898193 24.220001 -2.8162842 33.79535 -3.3795776c76.50897 -7.0407104 204.06302 -10.561035 382.66214 -10.561035zm-130.04175 -765.04266c-167.85034 0 -300.49713 70.1254 -397.94046 210.37617c-84.48843 121.663315 -126.732635 265.85687 -126.732635 432.58075c0 191.50708 31.823973 346.96576 95.47192 466.37604c83.92516 158.27502 218.26175 237.41248 403.00977 237.41248c172.35638 0 301.90527 -65.05603 388.64673 -195.16821c83.36194 -126.16943 125.04291 -312.32556 125.04291 -558.4685c0 -158.27496 -38.301453 -292.32993 -114.9043 -402.16486c-88.43121 -127.29588 -212.62921 -190.94383 -372.59393 -190.94383z" fill-rule="evenodd"/><path stroke="#000000" stroke-width="12.0" stroke-linejoin="round" stroke-linecap="butt" d="m554.3508 247.351c82.798706 0 144.75684 31.260696 185.87457 93.78215c34.921875 52.946075 56.043945 128.98566 63.366333 228.11874c-42.15973 -0.25354004 -82.01929 -0.38024902 -119.57861 -0.38024902c-212.83621 0 -351.8105 4.069519 -416.9229 12.208618c10.701874 -86.17819 38.019806 -159.96475 81.9538 -221.35968c54.07257 -74.913055 122.50821 -112.36958 205.30682 -112.36958zm130.88666 545.37274c35.71985 0 73.481445 0.1408081 113.28491 0.42242432c-27.036316 241.6369 -116.87567 362.45538 -269.51807 362.45538c-148.69962 0 -235.44107 -116.31238 -260.22433 -348.9372c12.954895 -1.6898193 24.220001 -2.8162842 33.79535 -3.3795776c76.50897 -7.0407104 204.06302 -10.561035 382.66214 -10.561035zm-130.04175 -765.04266c-167.85034 0 -300.49713 70.1254 -397.94046 210.37617c-84.48843 121.663315 -126.732635 265.85687 -126.732635 432.58075c0 191.50708 31.823973 346.96576 95.47192 466.37604c83.92516 158.27502 218.26175 237.41248 403.00977 237.41248c172.35638 0 301.90527 -65.05603 388.64673 -195.16821c83.36194 -126.16943 125.04291 -312.32556 125.04291 -558.4685c0 -158.27496 -38.301453 -292.32993 -114.9043 -402.16486c-88.43121 -127.29588 -212.62921 -190.94383 -372.59393 -190.94383z" fill-rule="evenodd"/></g></svg>