<svg version="1.1" viewBox="0.0 0.0 960.0 576.0" fill="none" stroke="none" stroke-linecap="square" stroke-miterlimit="10" xmlns:xlink="http://www.w3.org/1999/xlink" xmlns="http://www.w3.org/2000/svg"><clipPath id="p.0"><path d="m0 0l960.0 0l0 576.0l-960.0 0l0 -576.0z" clip-rule="nonzero"/></clipPath><g clip-path="url(#p.0)"><defs><linearGradient id="p.1" gradientUnits="userSpaceOnUse" gradientTransform="matrix(32.95626660326263 0.0 0.0 32.95626660326263 0.0 0.0)" spreadMethod="pad" x1="-8.73885393230459" y1="8.738822200320833" x2="14.564703045005627" y2="32.04246441845016"><stop offset="0.0" stop-color="#1e0033"/><stop offset="1.0" stop-color="#3c244d"/></linearGradient></defs><path fill="url(#p.1)" d="m0 0l960.0 0l0 576.0l-960.0 0z" fill-rule="evenodd"/><defs><radialGradient id="p.2" gradientUnits="userSpaceOnUse" gradientTransform="matrix(14.856036926761165 0.0 0.0 14.856036926761165 0.0 0.0)" spreadMethod="pad" cx="14.738028317564222" cy="34.58380884082525" fx="14.738028317564222" fy="34.58380884082525" r="14.856037139892578"><stop offset="0.0" stop-color="#64457a"/><stop offset="0.69" stop-color="#64457a" stop-opacity="0.0"/><stop offset="0.69000006" stop-color="#ffffff" stop-opacity="0.0"/><stop offset="1.0" stop-color="#ffffff" stop-opacity="0.0"/></radialGradient></defs><path fill="url(#p.2)" d="m61.68885 513.7783l0 0c0 -85.521484 70.40763 -154.85037 157.25986 -154.85037l0 0c41.707886 0 81.70755 16.314545 111.19949 45.354645c29.491943 29.04007 46.060333 68.42688 46.060333 109.49573l0 0c0 85.521545 -70.40762 154.8504 -157.25983 154.8504l0 0c-86.85222 0 -157.25986 -69.32886 -157.25986 -154.8504z" fill-rule="evenodd"/><defs><radialGradient id="p.3" gradientUnits="userSpaceOnUse" gradientTransform="matrix(14.856036926761165 0.0 0.0 14.856036926761165 0.0 0.0)" spreadMethod="pad" cx="12.032013138986771" cy="23.058929252178853" fx="12.032013138986771" fy="23.058929252178853" r="14.856037139892578"><stop offset="0.0" stop-color="#64457a"/><stop offset="0.69" stop-color="#64457a" stop-opacity="0.0"/><stop offset="0.69000006" stop-color="#ffffff" stop-opacity="0.0"/><stop offset="1.0" stop-color="#ffffff" stop-opacity="0.0"/></radialGradient></defs><path fill="url(#p.3)" d="m21.48819 342.5643l0 0c0 -85.521515 70.40763 -154.85039 157.25984 -154.85039l0 0c41.7079 0 81.707565 16.314545 111.19951 45.35463c29.491943 29.04007 46.060333 68.42688 46.060333 109.49576l0 0c0 85.521515 -70.40762 154.8504 -157.25984 154.8504l0 0c-86.85221 0 -157.25984 -69.32889 -157.25984 -154.8504z" fill-rule="evenodd"/><defs><radialGradient id="p.4" gradientUnits="userSpaceOnUse" gradientTransform="matrix(14.856036926761165 0.0 0.0 14.856036926761165 0.0 0.0)" spreadMethod="pad" cx="11.12832685195217" cy="20.705634756909866" fx="11.12832685195217" fy="20.705634756909866" r="14.856037139892578"><stop offset="0.0" stop-color="#64457a"/><stop offset="0.69" stop-color="#64457a" stop-opacity="0.0"/><stop offset="0.69000006" stop-color="#ffffff" stop-opacity="0.0"/><stop offset="1.0" stop-color="#ffffff" stop-opacity="0.0"/></radialGradient></defs><path fill="url(#p.4)" d="m8.062992 307.60367l0 0c0 -85.5215 70.40762 -154.85039 157.25984 -154.85039l0 0c41.7079 0 81.707565 16.314545 111.19951 45.35463c29.491943 29.040085 46.060333 68.42688 46.060333 109.49576l0 0c0 85.521515 -70.40762 154.8504 -157.25984 154.8504l0 0c-86.85221 0 -157.25984 -69.32889 -157.25984 -154.8504z" fill-rule="evenodd"/><defs><radialGradient id="p.5" gradientUnits="userSpaceOnUse" gradientTransform="matrix(14.856036926761165 0.0 0.0 14.856036926761165 0.0 0.0)" spreadMethod="pad" cx="15.661775556802187" cy="26.24382714003276" fx="15.661775556802187" fy="26.24382714003276" r="14.856037139892578"><stop offset="0.0" stop-color="#64457a"/><stop offset="0.69" stop-color="#64457a" stop-opacity="0.0"/><stop offset="0.69000006" stop-color="#ffffff" stop-opacity="0.0"/><stop offset="1.0" stop-color="#ffffff" stop-opacity="0.0"/></radialGradient></defs><path fill="url(#p.5)" d="m75.41207 389.87927l0 0c0 -85.521515 70.40763 -154.8504 157.25986 -154.8504l0 0c41.7079 0 81.707565 16.314545 111.19951 45.354645c29.491943 29.04007 46.060333 68.42688 46.060333 109.49576l0 0c0 85.521515 -70.40762 154.8504 -157.25984 154.8504l0 0c-86.85222 0 -157.25986 -69.32889 -157.25986 -154.8504z" fill-rule="evenodd"/><defs><radialGradient id="p.6" gradientUnits="userSpaceOnUse" gradientTransform="matrix(14.856036926761165 0.0 0.0 14.856036926761165 0.0 0.0)" spreadMethod="pad" cx="15.980495021476756" cy="30.137186809120045" fx="15.980495021476756" fy="30.137186809120045" r="14.856037139892578"><stop offset="0.0" stop-color="#64457a"/><stop offset="0.69" stop-color="#64457a" stop-opacity="0.0"/><stop offset="0.69000006" stop-color="#ffffff" stop-opacity="0.0"/><stop offset="1.0" stop-color="#ffffff" stop-opacity="0.0"/></radialGradient></defs><path fill="url(#p.6)" d="m80.14698 447.71915l0 0c0 -85.521484 70.40763 -154.85037 157.25986 -154.85037l0 0c41.707886 0 81.70755 16.314545 111.19949 45.354614c29.491943 29.0401 46.060333 68.42688 46.060333 109.49576l0 0c0 85.521515 -70.40762 154.85043 -157.25983 154.85043l0 0c-86.85222 0 -157.25986 -69.32892 -157.25986 -154.85043z" fill-rule="evenodd"/><defs><radialGradient id="p.7" gradientUnits="userSpaceOnUse" gradientTransform="matrix(14.740961016144457 -2.62224784572245 2.62224784572245 14.740961016144457 0.0 0.0)" spreadMethod="pad" cx="9.757298890081827" cy="39.261096965981984" fx="9.757298890081827" fy="39.261096965981984" r="14.740961074829102"><stop offset="0.0" stop-color="#64457a"/><stop offset="0.69" stop-color="#64457a" stop-opacity="0.0"/><stop offset="0.69000006" stop-color="#ffffff" stop-opacity="0.0"/><stop offset="1.0" stop-color="#ffffff" stop-opacity="0.0"/></radialGradient></defs><path fill="url(#p.7)" d="m91.949646 580.70355l0 0c-14.985619 -84.19949 42.187973 -164.78824 127.70079 -180.0l0 0c41.064682 -7.3049316 83.30623 1.7516785 117.43196 25.17746c34.1257 23.425812 57.34018 59.30191 64.53653 99.73593l0 0c14.985626 84.199524 -42.187958 164.78827 -127.700775 180.0l0 0c-85.51282 15.211731 -166.9829 -40.713867 -181.9685 -124.91339z" fill-rule="evenodd"/><defs><radialGradient id="p.8" gradientUnits="userSpaceOnUse" gradientTransform="matrix(14.856036926761165 0.0 0.0 14.856036926761165 0.0 0.0)" spreadMethod="pad" cx="15.683409612172657" cy="30.941679259746408" fx="15.683409612172657" fy="30.941679259746408" r="14.856037139892578"><stop offset="0.0" stop-color="#64457a"/><stop offset="0.69" stop-color="#64457a" stop-opacity="0.0"/><stop offset="0.69000006" stop-color="#ffffff" stop-opacity="0.0"/><stop offset="1.0" stop-color="#ffffff" stop-opacity="0.0"/></radialGradient></defs><path fill="url(#p.8)" d="m75.73347 459.67072l0 0c0 -85.521484 70.40763 -154.85037 157.25986 -154.85037l0 0c41.707886 0 81.70755 16.314545 111.19949 45.354614c29.491943 29.0401 46.060333 68.42688 46.060333 109.49576l0 0c0 85.521545 -70.40762 154.8504 -157.25983 154.8504l0 0c-86.85222 0 -157.25986 -69.32886 -157.25986 -154.8504z" fill-rule="evenodd"/><defs><radialGradient id="p.9" gradientUnits="userSpaceOnUse" gradientTransform="matrix(14.740961016144457 -2.62224784572245 2.62224784572245 14.740961016144457 0.0 0.0)" spreadMethod="pad" cx="8.92259606682245" cy="40.786609582174414" fx="8.92259606682245" fy="40.786609582174414" r="14.740961074829102"><stop offset="0.0" stop-color="#64457a"/><stop offset="0.69" stop-color="#64457a" stop-opacity="0.0"/><stop offset="0.69000006" stop-color="#ffffff" stop-opacity="0.0"/><stop offset="1.0" stop-color="#ffffff" stop-opacity="0.0"/></radialGradient></defs><path fill="url(#p.9)" d="m83.64559 605.3799l0 0c-14.985611 -84.199524 42.187973 -164.78827 127.70078 -180.0l0 0c41.064713 -7.304962 83.306244 1.751648 117.431946 25.17746c34.125732 23.425812 57.34021 59.30188 64.53656 99.73593l0 0c14.985626 84.19946 -42.187958 164.78821 -127.700775 180.0l0 0c-85.51282 15.211731 -166.9829 -40.713867 -181.9685 -124.91339z" fill-rule="evenodd"/><defs><radialGradient id="p.10" gradientUnits="userSpaceOnUse" gradientTransform="matrix(14.740961016144457 -2.62224784572245 2.62224784572245 14.740961016144457 0.0 0.0)" spreadMethod="pad" cx="7.984845486342397" cy="46.20135413166469" fx="7.984845486342397" fy="46.20135413166469" r="14.740961074829102"><stop offset="0.0" stop-color="#64457a"/><stop offset="0.69" stop-color="#64457a" stop-opacity="0.0"/><stop offset="0.69000006" stop-color="#ffffff" stop-opacity="0.0"/><stop offset="1.0" stop-color="#ffffff" stop-opacity="0.0"/></radialGradient></defs><path fill="url(#p.10)" d="m84.02105 687.6574l0 0c-14.985611 -84.19946 42.187973 -164.78821 127.70078 -180.0l0 0c41.064713 -7.3049316 83.306244 1.7516785 117.431946 25.17749c34.125732 23.425781 57.34021 59.30188 64.53656 99.7359l0 0c14.985626 84.199524 -42.187958 164.78827 -127.700775 180.0l0 0c-85.51282 15.211731 -166.9829 -40.713867 -181.9685 -124.91339z" fill-rule="evenodd"/><defs><radialGradient id="p.11" gradientUnits="userSpaceOnUse" gradientTransform="matrix(14.740961016144457 -2.62224784572245 2.62224784572245 14.740961016144457 0.0 0.0)" spreadMethod="pad" cx="8.923097789575502" cy="50.328414685972184" fx="8.923097789575502" fy="50.328414685972184" r="14.740961074829102"><stop offset="0.0" stop-color="#64457a"/><stop offset="0.69" stop-color="#64457a" stop-opacity="0.0"/><stop offset="0.69000006" stop-color="#ffffff" stop-opacity="0.0"/><stop offset="1.0" stop-color="#ffffff" stop-opacity="0.0"/></radialGradient></defs><path fill="url(#p.11)" d="m108.673965 746.03394l0 0c-14.985611 -84.199524 42.187973 -164.78827 127.70079 -180.0l0 0c41.064697 -7.3049316 83.306244 1.751648 117.431946 25.17749c34.125732 23.425781 57.34021 59.30188 64.53656 99.7359l0 0c14.985626 84.199524 -42.18799 164.78827 -127.700775 180.0l0 0c-85.51283 15.211731 -166.98291 -40.713867 -181.96852 -124.91339z" fill-rule="evenodd"/><defs><radialGradient id="p.12" gradientUnits="userSpaceOnUse" gradientTransform="matrix(14.642670246613052 -3.5742545246456663 3.5742545246456663 14.642670246613052 0.0 0.0)" spreadMethod="pad" cx="44.8792339446076" cy="13.309352804225426" fx="44.8792339446076" fy="13.309352804225426" r="14.642670631408691"><stop offset="0.0" stop-color="#64457a"/><stop offset="0.69" stop-color="#64457a" stop-opacity="0.0"/><stop offset="0.69000006" stop-color="#ffffff" stop-opacity="0.0"/><stop offset="1.0" stop-color="#ffffff" stop-opacity="0.0"/></radialGradient></defs><path fill="url(#p.12)" d="m551.9512 71.766l0 0c-20.27362 -83.08624 31.689575 -167.13684 116.06299 -187.73228l0 0c40.51758 -9.890274 83.243164 -3.5254898 118.77759 17.694176c35.534485 21.219666 60.96698 55.55601 70.70276 95.45543l0 0c20.27362 83.08624 -31.689575 167.13684 -116.06299 187.73228l0 0c-84.373474 20.595444 -169.20673 -30.06337 -189.48035 -113.149605z" fill-rule="evenodd"/><defs><radialGradient id="p.13" gradientUnits="userSpaceOnUse" gradientTransform="matrix(14.642670246613052 -3.5742545246456663 3.5742545246456663 14.642670246613052 0.0 0.0)" spreadMethod="pad" cx="42.212714490729155" cy="1.9499132829010815" fx="42.212714490729155" fy="1.9499132829010815" r="14.642670631408691"><stop offset="0.0" stop-color="#64457a"/><stop offset="0.69" stop-color="#64457a" stop-opacity="0.0"/><stop offset="0.69000006" stop-color="#ffffff" stop-opacity="0.0"/><stop offset="1.0" stop-color="#ffffff" stop-opacity="0.0"/></radialGradient></defs><path fill="url(#p.13)" d="m472.3047 -85.03571l0 0c-20.27362 -83.086235 31.689545 -167.13684 116.06299 -187.7323l0 0c40.51758 -9.890259 83.243164 -3.5254822 118.77759 17.694183c35.534485 21.219666 60.96698 55.556015 70.70276 95.45543l0 0c20.27362 83.08624 -31.689575 167.13686 -116.06299 187.73228l0 0c-84.373474 20.59544 -169.2067 -30.063366 -189.48035 -113.14961z" fill-rule="evenodd"/><defs><radialGradient id="p.14" gradientUnits="userSpaceOnUse" gradientTransform="matrix(14.642670246613052 -3.5742545246456663 3.5742545246456663 14.642670246613052 0.0 0.0)" spreadMethod="pad" cx="41.322137945547844" cy="-0.36961838040742206" fx="41.322137945547844" fy="-0.36961838040742206" r="14.642670631408691"><stop offset="0.0" stop-color="#64457a"/><stop offset="0.69" stop-color="#64457a" stop-opacity="0.0"/><stop offset="0.69000006" stop-color="#ffffff" stop-opacity="0.0"/><stop offset="1.0" stop-color="#ffffff" stop-opacity="0.0"/></radialGradient></defs><path fill="url(#p.14)" d="m450.97366 -115.8167l0 0c-20.27362 -83.086235 31.689545 -167.13684 116.06302 -187.73227l0 0c40.51758 -9.890289 83.2431 -3.5254822 118.77759 17.694183c35.534424 21.219666 60.96698 55.556 70.7027 95.455414l0 0c20.27362 83.08624 -31.689514 167.13686 -116.06299 187.73228l0 0c-84.37341 20.595438 -169.20667 -30.063368 -189.48032 -113.14961z" fill-rule="evenodd"/><defs><radialGradient id="p.15" gradientUnits="userSpaceOnUse" gradientTransform="matrix(14.642670246613052 -3.5742545246456663 3.5742545246456663 14.642670246613052 0.0 0.0)" spreadMethod="pad" cx="45.79015548618124" cy="5.089246073585711" fx="45.79015548618124" fy="5.089246073585711" r="14.642670631408691"><stop offset="0.0" stop-color="#64457a"/><stop offset="0.69" stop-color="#64457a" stop-opacity="0.0"/><stop offset="0.69000006" stop-color="#ffffff" stop-opacity="0.0"/><stop offset="1.0" stop-color="#ffffff" stop-opacity="0.0"/></radialGradient></defs><path fill="url(#p.15)" d="m535.90875 -51.85418l0 0c-20.27362 -83.086235 31.689514 -167.13684 116.06299 -187.73227l0 0c40.51758 -9.890289 83.243164 -3.5254974 118.77759 17.694168c35.534485 21.219666 60.96698 55.556015 70.70276 95.45543l0 0c20.27362 83.08624 -31.689575 167.13684 -116.06299 187.73228l0 0c-84.373474 20.595436 -169.20673 -30.063366 -189.48035 -113.149605z" fill-rule="evenodd"/><defs><radialGradient id="p.16" gradientUnits="userSpaceOnUse" gradientTransform="matrix(14.642670246613052 -3.5742545246456663 3.5742545246456663 14.642670246613052 0.0 0.0)" spreadMethod="pad" cx="46.1040873519016" cy="8.926684564029534" fx="46.1040873519016" fy="8.926684564029534" r="14.642670631408691"><stop offset="0.0" stop-color="#64457a"/><stop offset="0.69" stop-color="#64457a" stop-opacity="0.0"/><stop offset="0.69000006" stop-color="#ffffff" stop-opacity="0.0"/><stop offset="1.0" stop-color="#ffffff" stop-opacity="0.0"/></radialGradient></defs><path fill="url(#p.16)" d="m554.22156 3.2140942l0 0c-20.273682 -83.08624 31.689514 -167.13684 116.06299 -187.73228l0 0c40.517517 -9.890274 83.2431 -3.5254974 118.77759 17.694168c35.534424 21.219666 60.96698 55.556015 70.7027 95.45544l0 0c20.27362 83.08624 -31.689514 167.13684 -116.06299 187.73228l0 0c-84.373474 20.595436 -169.20667 -30.06337 -189.48029 -113.149605z" fill-rule="evenodd"/><defs><radialGradient id="p.17" gradientUnits="userSpaceOnUse" gradientTransform="matrix(14.21026759535746 -6.26763471697896 6.26763471697896 14.21026759535746 0.0 0.0)" spreadMethod="pad" cx="41.941277117881896" cy="23.15252815200025" fx="41.941277117881896" fy="23.15252815200025" r="14.210268020629883"><stop offset="0.0" stop-color="#64457a"/><stop offset="0.69" stop-color="#64457a" stop-opacity="0.0"/><stop offset="0.69000006" stop-color="#ffffff" stop-opacity="0.0"/><stop offset="1.0" stop-color="#ffffff" stop-opacity="0.0"/></radialGradient></defs><path fill="url(#p.17)" d="m597.21857 129.59558l0 0c-34.51996 -78.24179 1.9177246 -170.08334 81.385864 -205.13385l0 0c38.161926 -16.831848 81.34607 -18.048477 120.05243 -3.382248c38.7063 14.666229 69.76416 44.013943 86.34125 81.586975l0 0c34.51996 78.24179 -1.9176636 170.08336 -81.3858 205.13387l0 0c-79.46814 35.050507 -171.87372 0.0370636 -206.39374 -78.20473z" fill-rule="evenodd"/><defs><radialGradient id="p.18" gradientUnits="userSpaceOnUse" gradientTransform="matrix(14.642670246613052 -3.5742545246456663 3.5742545246456663 14.642670246613052 0.0 0.0)" spreadMethod="pad" cx="45.811227296451804" cy="9.719602491713554" fx="45.811227296451804" fy="9.719602491713554" r="14.642670631408691"><stop offset="0.0" stop-color="#64457a"/><stop offset="0.69" stop-color="#64457a" stop-opacity="0.0"/><stop offset="0.69000006" stop-color="#ffffff" stop-opacity="0.0"/><stop offset="1.0" stop-color="#ffffff" stop-opacity="0.0"/></radialGradient></defs><path fill="url(#p.18)" d="m552.7674 15.871286l0 0c-20.273682 -83.086235 31.689514 -167.13686 116.06299 -187.73228l0 0c40.517517 -9.890289 83.2431 -3.5254974 118.77759 17.694168c35.534424 21.219666 60.96698 55.556015 70.7027 95.45543l0 0c20.27362 83.08624 -31.689514 167.13684 -116.06299 187.73228l0 0c-84.373474 20.595444 -169.20667 -30.063362 -189.48029 -113.149605z" fill-rule="evenodd"/><defs><radialGradient id="p.19" gradientUnits="userSpaceOnUse" gradientTransform="matrix(14.21026759535746 -6.26763471697896 6.26763471697896 14.21026759535746 0.0 0.0)" spreadMethod="pad" cx="41.13661904523324" cy="24.62317108917683" fx="41.13661904523324" fy="24.62317108917683" r="14.210268020629883"><stop offset="0.0" stop-color="#64457a"/><stop offset="0.69" stop-color="#64457a" stop-opacity="0.0"/><stop offset="0.69000006" stop-color="#ffffff" stop-opacity="0.0"/><stop offset="1.0" stop-color="#ffffff" stop-opacity="0.0"/></radialGradient></defs><path fill="url(#p.19)" d="m595.00165 155.53711l0 0c-34.51996 -78.24178 1.9177246 -170.08334 81.3858 -205.13385l0 0c38.161926 -16.831844 81.34607 -18.048481 120.05243 -3.382248c38.7063 14.666229 69.76422 44.013943 86.34131 81.586975l0 0c34.51996 78.24179 -1.9177246 170.08334 -81.385864 205.13385l0 0c-79.46808 35.05052 -171.87372 0.0370636 -206.39368 -78.20473z" fill-rule="evenodd"/><defs><radialGradient id="p.20" gradientUnits="userSpaceOnUse" gradientTransform="matrix(14.21026759536268 -6.26763471695298 6.26763471695298 14.21026759536268 0.0 0.0)" spreadMethod="pad" cx="40.91182236697042" cy="29.57971442781318" fx="40.91182236697042" fy="29.57971442781318" r="14.210268020629883"><stop offset="0.0" stop-color="#64457a"/><stop offset="0.69" stop-color="#64457a" stop-opacity="0.0"/><stop offset="0.69000006" stop-color="#ffffff" stop-opacity="0.0"/><stop offset="1.0" stop-color="#ffffff" stop-opacity="0.0"/></radialGradient></defs><path fill="url(#p.20)" d="m622.87305 227.37987l0 0c-34.52002 -78.24179 1.9176636 -170.08334 81.3858 -205.13387l0 0c38.161926 -16.83185 81.34607 -18.048481 120.05243 -3.3822517c38.7063 14.666231 69.76422 44.013947 86.34125 81.586975l0 0c34.52002 78.24179 -1.9176636 170.08336 -81.3858 205.13387l0 0c-79.46814 35.050507 -171.87372 0.03704834 -206.39368 -78.20473z" fill-rule="evenodd"/><defs><radialGradient id="p.21" gradientUnits="userSpaceOnUse" gradientTransform="matrix(14.21026759536268 -6.26763471695298 6.26763471695298 14.21026759536268 0.0 0.0)" spreadMethod="pad" cx="41.816367943636436" cy="33.55829705105806" fx="41.816367943636436" fy="33.55829705105806" r="14.210268020629883"><stop offset="0.0" stop-color="#64457a"/><stop offset="0.69" stop-color="#64457a" stop-opacity="0.0"/><stop offset="0.69000006" stop-color="#ffffff" stop-opacity="0.0"/><stop offset="1.0" stop-color="#ffffff" stop-opacity="0.0"/></radialGradient></defs><path fill="url(#p.21)" d="m660.66315 278.24722l0 0c-34.51996 -78.24179 1.9177246 -170.08334 81.385864 -205.13385l0 0c38.161926 -16.831852 81.34607 -18.048485 120.05237 -3.3822556c38.70636 14.666229 69.76422 44.013947 86.34131 81.58698l0 0c34.51996 78.24179 -1.9177246 170.08333 -81.3858 205.13387l0 0c-79.46814 35.050507 -171.87378 0.03704834 -206.39374 -78.20474z" fill-rule="evenodd"/><defs><radialGradient id="p.22" gradientUnits="userSpaceOnUse" gradientTransform="matrix(14.856036926761165 0.0 0.0 14.856036926761165 0.0 0.0)" spreadMethod="pad" cx="7.897317112501779" cy="18.013126640701206" fx="7.897317112501779" fy="18.013126640701206" r="14.856037139892578"><stop offset="0.0" stop-color="#64457a"/><stop offset="0.69" stop-color="#64457a" stop-opacity="0.0"/><stop offset="0.69000006" stop-color="#ffffff" stop-opacity="0.0"/><stop offset="1.0" stop-color="#ffffff" stop-opacity="0.0"/></radialGradient></defs><path fill="url(#p.22)" d="m-39.937008 267.60367l0 0c0 -85.5215 70.40763 -154.85039 157.25984 -154.85039l0 0c41.707893 0 81.70756 16.314545 111.1995 45.35463c29.491943 29.040085 46.060333 68.42688 46.060333 109.49576l0 0c0 85.521515 -70.40762 154.8504 -157.25983 154.8504l0 0c-86.85222 0 -157.25984 -69.32889 -157.25984 -154.8504z" fill-rule="evenodd"/><defs><radialGradient id="p.23" gradientUnits="userSpaceOnUse" gradientTransform="matrix(14.856036926761165 0.0 0.0 14.856036926761165 0.0 0.0)" spreadMethod="pad" cx="3.5893041265679217" cy="16.93612339421774" fx="3.5893041265679217" fy="16.93612339421774" r="14.856037139892578"><stop offset="0.0" stop-color="#64457a"/><stop offset="0.69" stop-color="#64457a" stop-opacity="0.0"/><stop offset="0.69000006" stop-color="#ffffff" stop-opacity="0.0"/><stop offset="1.0" stop-color="#ffffff" stop-opacity="0.0"/></radialGradient></defs><path fill="url(#p.23)" d="m-103.937004 251.60367l0 0c0 -85.5215 70.40762 -154.85039 157.25984 -154.85039l0 0c41.707905 0 81.707565 16.314545 111.19951 45.35463c29.491943 29.040085 46.060333 68.42688 46.060333 109.49576l0 0c0 85.521515 -70.40762 154.8504 -157.25984 154.8504l0 0c-86.85221 0 -157.25984 -69.32889 -157.25984 -154.8504z" fill-rule="evenodd"/><defs><radialGradient id="p.24" gradientUnits="userSpaceOnUse" gradientTransform="matrix(14.856036926761165 0.0 0.0 14.856036926761165 0.0 0.0)" spreadMethod="pad" cx="1.4352976336009933" cy="14.782116901250815" fx="1.4352976336009933" fy="14.782116901250815" r="14.856037139892578"><stop offset="0.0" stop-color="#64457a"/><stop offset="0.69" stop-color="#64457a" stop-opacity="0.0"/><stop offset="0.69000006" stop-color="#ffffff" stop-opacity="0.0"/><stop offset="1.0" stop-color="#ffffff" stop-opacity="0.0"/></radialGradient></defs><path fill="url(#p.24)" d="m-135.93701 219.60367l0 0c0 -85.5215 70.40763 -154.85039 157.25984 -154.85039l0 0c41.707905 0 81.707565 16.314545 111.19951 45.35463c29.491943 29.040085 46.060333 68.42688 46.060333 109.49576l0 0c0 85.521515 -70.40762 154.8504 -157.25984 154.8504l0 0c-86.85222 0 -157.25984 -69.32889 -157.25984 -154.8504z" fill-rule="evenodd"/><defs><radialGradient id="p.25" gradientUnits="userSpaceOnUse" gradientTransform="matrix(14.856036926761165 0.0 0.0 14.856036926761165 0.0 0.0)" spreadMethod="pad" cx="1.9737992568427254" cy="13.70511365476735" fx="1.9737992568427254" fy="13.70511365476735" r="14.856037139892578"><stop offset="0.0" stop-color="#64457a"/><stop offset="0.69" stop-color="#64457a" stop-opacity="0.0"/><stop offset="0.69000006" stop-color="#ffffff" stop-opacity="0.0"/><stop offset="1.0" stop-color="#ffffff" stop-opacity="0.0"/></radialGradient></defs><path fill="url(#p.25)" d="m-127.937004 203.60367l0 0c0 -85.52151 70.40762 -154.85039 157.25984 -154.85039l0 0c41.707905 0 81.707565 16.314545 111.19951 45.35463c29.491943 29.040085 46.060333 68.42688 46.060333 109.49576l0 0c0 85.521515 -70.40762 154.8504 -157.25984 154.8504l0 0c-86.85221 0 -157.25984 -69.32889 -157.25984 -154.8504z" fill-rule="evenodd"/><defs><radialGradient id="p.26" gradientUnits="userSpaceOnUse" gradientTransform="matrix(14.856036926761165 0.0 0.0 14.856036926761165 0.0 0.0)" spreadMethod="pad" cx="0.35829438711752915" cy="12.628110408283886" fx="0.35829438711752915" fy="12.628110408283886" r="14.856037139892578"><stop offset="0.0" stop-color="#64457a"/><stop offset="0.69" stop-color="#64457a" stop-opacity="0.0"/><stop offset="0.69000006" stop-color="#ffffff" stop-opacity="0.0"/><stop offset="1.0" stop-color="#ffffff" stop-opacity="0.0"/></radialGradient></defs><path fill="url(#p.26)" d="m-151.93701 187.60367l0 0c0 -85.52151 70.40763 -154.85039 157.25984 -154.85039l0 0c41.707905 0 81.70756 16.314548 111.1995 45.35463c29.491943 29.040085 46.060333 68.42688 46.060333 109.49576l0 0c0 85.521515 -70.40762 154.8504 -157.25984 154.8504l0 0c-86.85222 0 -157.25984 -69.32889 -157.25984 -154.8504z" fill-rule="evenodd"/><defs><radialGradient id="p.27" gradientUnits="userSpaceOnUse" gradientTransform="matrix(14.856036926761165 0.0 0.0 14.856036926761165 0.0 0.0)" spreadMethod="pad" cx="-1.7957121058493992" cy="11.551107161800422" fx="-1.7957121058493992" fy="11.551107161800422" r="14.856037139892578"><stop offset="0.0" stop-color="#64457a"/><stop offset="0.69" stop-color="#64457a" stop-opacity="0.0"/><stop offset="0.69000006" stop-color="#ffffff" stop-opacity="0.0"/><stop offset="1.0" stop-color="#ffffff" stop-opacity="0.0"/></radialGradient></defs><path fill="url(#p.27)" d="m-183.93701 171.60367l0 0c0 -85.52151 70.40763 -154.85039 157.25984 -154.85039l0 0c41.707905 0 81.707565 16.314548 111.19951 45.35463c29.491936 29.040085 46.060333 68.42688 46.060333 109.49576l0 0c0 85.521515 -70.40762 154.8504 -157.25984 154.8504l0 0c-86.85222 0 -157.25984 -69.32889 -157.25984 -154.8504z" fill-rule="evenodd"/><defs><radialGradient id="p.28" gradientUnits="userSpaceOnUse" gradientTransform="matrix(14.856036926761165 0.0 0.0 14.856036926761165 0.0 0.0)" spreadMethod="pad" cx="-2.8727153523328632" cy="9.397100668833493" fx="-2.8727153523328632" fy="9.397100668833493" r="14.856037139892578"><stop offset="0.0" stop-color="#64457a"/><stop offset="0.69" stop-color="#64457a" stop-opacity="0.0"/><stop offset="0.69000006" stop-color="#ffffff" stop-opacity="0.0"/><stop offset="1.0" stop-color="#ffffff" stop-opacity="0.0"/></radialGradient></defs><path fill="url(#p.28)" d="m-199.93701 139.60367l0 0c0 -85.5215 70.40764 -154.85039 157.25984 -154.85039l0 0c41.707905 0 81.707565 16.314548 111.19951 45.35463c29.491936 29.040085 46.06034 68.42689 46.06034 109.49576l0 0c0 85.521515 -70.40763 154.8504 -157.25984 154.8504l0 0c-86.8522 0 -157.25984 -69.32889 -157.25984 -154.8504z" fill-rule="evenodd"/><defs><radialGradient id="p.29" gradientUnits="userSpaceOnUse" gradientTransform="matrix(11.813391070246206 -12.715428728677596 12.715428728677596 11.813391070246206 0.0 0.0)" spreadMethod="pad" cx="25.383161914352936" cy="43.4581924803024" fx="25.383161914352936" fy="43.4581924803024" r="12.715428352355957"><stop offset="0.0" stop-color="#64457a"/><stop offset="0.69" stop-color="#64457a" stop-opacity="0.0"/><stop offset="0.69000006" stop-color="#ffffff" stop-opacity="0.0"/><stop offset="1.0" stop-color="#ffffff" stop-opacity="0.0"/></radialGradient></defs><path fill="url(#p.29)" d="m745.4114 305.84344l0 0c-62.656006 -58.19429 -65.525635 -156.95253 -6.409424 -220.58269l0 0c28.38861 -30.556282 67.56708 -48.759598 108.916626 -50.605427c41.34961 -1.8458328 81.48303 12.817024 111.57153 40.762905l0 0c62.656067 58.194283 65.525635 156.95251 6.409485 220.58267l0 0c-59.11621 63.630157 -157.83215 68.036804 -220.48822 9.842529z" fill-rule="evenodd"/><defs><radialGradient id="p.30" gradientUnits="userSpaceOnUse" gradientTransform="matrix(11.813391070246206 -12.715428728677596 12.715428728677596 11.813391070246206 0.0 0.0)" spreadMethod="pad" cx="24.66309619200332" cy="44.77417496492885" fx="24.66309619200332" fy="44.77417496492885" r="12.715428352355957"><stop offset="0.0" stop-color="#64457a"/><stop offset="0.69" stop-color="#64457a" stop-opacity="0.0"/><stop offset="0.69000006" stop-color="#ffffff" stop-opacity="0.0"/><stop offset="1.0" stop-color="#ffffff" stop-opacity="0.0"/></radialGradient></defs><path fill="url(#p.30)" d="m753.63824 330.5456l0 0c-62.656006 -58.194275 -65.525635 -156.95251 -6.409424 -220.58267l0 0c28.38861 -30.556282 67.56708 -48.7596 108.916626 -50.60543c41.34955 -1.8458328 81.48303 12.817024 111.57153 40.76291l0 0c62.656067 58.194283 65.525696 156.95251 6.409485 220.58267l0 0c-59.11621 63.630157 -157.83215 68.036804 -220.48822 9.842529z" fill-rule="evenodd"/><defs><radialGradient id="p.31" gradientUnits="userSpaceOnUse" gradientTransform="matrix(11.81339106985755 -12.715428728803706 12.715428728803706 11.81339106985755 0.0 0.0)" spreadMethod="pad" cx="23.854116800582418" cy="49.445210965529995" fx="23.854116800582418" fy="49.445210965529995" r="12.715428352355957"><stop offset="0.0" stop-color="#64457a"/><stop offset="0.69" stop-color="#64457a" stop-opacity="0.0"/><stop offset="0.69000006" stop-color="#ffffff" stop-opacity="0.0"/><stop offset="1.0" stop-color="#ffffff" stop-opacity="0.0"/></radialGradient></defs><path fill="url(#p.31)" d="m803.4757 396.01288l0 0c-62.656067 -58.194275 -65.525696 -156.9525 -6.409485 -220.58267l0 0c28.38861 -30.556274 67.56714 -48.75959 108.91669 -50.605423c41.34955 -1.8458328 81.48303 12.817032 111.57153 40.76291l0 0c62.656006 58.19429 65.525635 156.95253 6.409424 220.58269l0 0c-59.11621 63.630157 -157.83209 68.036804 -220.48816 9.842499z" fill-rule="evenodd"/><defs><radialGradient id="p.32" gradientUnits="userSpaceOnUse" gradientTransform="matrix(11.81339106985755 -12.715428728803706 12.715428728803706 11.81339106985755 0.0 0.0)" spreadMethod="pad" cx="24.663481618112144" cy="53.00543300041179" fx="24.663481618112144" fy="53.00543300041179" r="12.715428352355957"><stop offset="0.0" stop-color="#64457a"/><stop offset="0.69" stop-color="#64457a" stop-opacity="0.0"/><stop offset="0.69000006" stop-color="#ffffff" stop-opacity="0.0"/><stop offset="1.0" stop-color="#ffffff" stop-opacity="0.0"/></radialGradient></defs><path fill="url(#p.32)" d="m858.30676 427.77975l0 0c-62.656006 -58.194275 -65.525635 -156.95251 -6.409424 -220.58267l0 0c28.38861 -30.556274 67.56708 -48.759598 108.916626 -50.605423c41.34961 -1.8458252 81.48303 12.817032 111.57153 40.76291l0 0c62.656128 58.19429 65.525635 156.95253 6.409424 220.58269l0 0c-59.11615 63.630157 -157.83209 68.036804 -220.48816 9.842499z" fill-rule="evenodd"/><defs><radialGradient id="p.33" gradientUnits="userSpaceOnUse" gradientTransform="matrix(11.81339106985755 -12.715428728803706 12.715428728803706 11.81339106985755 0.0 0.0)" spreadMethod="pad" cx="24.349752861967463" cy="52.66774878972715" fx="24.349752861967463" fy="52.66774878972715" r="12.715428352355957"><stop offset="0.0" stop-color="#64457a"/><stop offset="0.69" stop-color="#64457a" stop-opacity="0.0"/><stop offset="0.69000006" stop-color="#ffffff" stop-opacity="0.0"/><stop offset="1.0" stop-color="#ffffff" stop-opacity="0.0"/></radialGradient></defs><path fill="url(#p.33)" d="m850.30676 427.77975l0 0c-62.656006 -58.194275 -65.525635 -156.95251 -6.409424 -220.58267l0 0c28.38861 -30.556274 67.56708 -48.759598 108.916626 -50.605423c41.34961 -1.8458252 81.48303 12.817032 111.57153 40.76291l0 0c62.656128 58.19429 65.525635 156.95253 6.409424 220.58269l0 0c-59.11615 63.630157 -157.83209 68.036804 -220.48816 9.842499z" fill-rule="evenodd"/><defs><radialGradient id="p.34" gradientUnits="userSpaceOnUse" gradientTransform="matrix(11.81339106985755 -12.715428728803706 12.715428728803706 11.81339106985755 0.0 0.0)" spreadMethod="pad" cx="24.95325491971685" cy="53.99453017792576" fx="24.95325491971685" fy="53.99453017792576" r="12.715428352355957"><stop offset="0.0" stop-color="#64457a"/><stop offset="0.69" stop-color="#64457a" stop-opacity="0.0"/><stop offset="0.69000006" stop-color="#ffffff" stop-opacity="0.0"/><stop offset="1.0" stop-color="#ffffff" stop-opacity="0.0"/></radialGradient></defs><path fill="url(#p.34)" d="m874.30676 435.77975l0 0c-62.656006 -58.194275 -65.525635 -156.95251 -6.409424 -220.58267l0 0c28.38861 -30.556274 67.56708 -48.759598 108.916626 -50.605423c41.34961 -1.8458252 81.48303 12.817032 111.57153 40.76291l0 0c62.656128 58.19429 65.525635 156.95253 6.409424 220.58269l0 0c-59.11621 63.630157 -157.83209 68.036804 -220.48816 9.842499z" fill-rule="evenodd"/></g></svg>