<svg version="1.1" viewBox="0.0 0.0 1072.9238845144357 1412.8713910761155" fill="none" stroke="none" stroke-linecap="square" stroke-miterlimit="10" xmlns:xlink="http://www.w3.org/1999/xlink" xmlns="http://www.w3.org/2000/svg"><clipPath id="p.0"><path d="m0 0l1072.9238 0l0 1412.8713l-1072.9238 0l0 -1412.8713z" clip-rule="nonzero"/></clipPath><g clip-path="url(#p.0)"><path fill="#000000" fill-opacity="0.0" d="m0 0l1072.9238 0l0 1412.8713l-1072.9238 0z" fill-rule="evenodd"/><path fill="#000000" d="m153.71393 87.790276c-4.60347 -6.492424 -13.044647 -9.3881 -25.323532 -8.687027c7.6088715 -5.436821 10.449341 -9.514763 8.521393 -12.23381c-1.7312164 -2.441597 -4.917557 -2.016861 -9.559021 1.2742081c-1.5165176 1.0752945 -3.8175354 2.6512375 -6.903023 4.7278595c-3.078949 2.085846 -5.376663 3.6664352 -6.893181 4.7417374l-48.39071 34.311806c-4.6414604 3.2910614 -6.0965843 6.1573944 -4.365368 8.598984c1.9476166 2.7467957 5.242161 2.4746628 9.883625 -0.81640625l37.716057 -26.867943c7.1808167 -2.63163 13.140213 -3.771782 17.878181 -3.420456c5.085785 0.35487366 9.6194 2.4146423 13.600876 6.179306l-5.7018127 4.2305374c-2.2846985 1.7450638 -3.863617 2.927147 -4.7367554 3.546257c-4.5495605 3.2258987 -5.978401 6.0318985 -4.2865295 8.418007c1.8295822 2.5803223 5.685425 1.9310379 11.56752 -1.9478455c0.8468628 -0.55877686 2.4651184 -1.685379 4.854782 -3.3797836c5.652481 -4.0079346 9.486893 -7.560646 11.503235 -10.658134c2.0163422 -3.0974884 2.227768 -5.7699203 0.6342621 -8.017296z" fill-rule="evenodd"/><path fill="#000000" d="m166.05403 132.51378c0.3147583 0.4439392 0.524353 1.1778259 0.62882996 2.2017365c0.11100769 1.0331116 0.09390259 2.3725586 -0.051345825 4.0182495c-2.835846 1.552124 -5.4737244 3.0750427 -7.913574 4.568802c-2.4180145 1.4921112 -4.6150208 2.9387665 -6.591095 4.33992c-6.0660706 4.301193 -14.873383 11.213196 -26.421951 20.736023c-3.898178 0.053878784 -6.6379547 -0.10903931 -8.21933 -0.48875427c-2.926506 -0.71847534 -5.3340683 -2.4094849 -7.222664 -5.073044c-2.2820587 -3.2184753 -2.1094437 -6.968292 0.51784515 -11.249481c2.6272888 -4.281189 7.7092514 -9.093735 15.245888 -14.437653c7.582588 -5.3764954 15.38166 -8.564667 23.397255 -9.564461c8.037445 -1.001442 13.580841 0.6481247 16.630142 4.948662zm11.817444 -9.192299c-4.5444336 -6.4091873 -12.408218 -9.123619 -23.591293 -8.1432495c-11.176544 0.9895859 -22.325378 5.42717 -33.446503 13.312691c-11.7645035 8.341705 -19.502487 15.93396 -23.213951 22.776764c-3.9610672 7.2699585 -3.6398773 14.151138 0.9635849 20.64357c0.963974 1.3595276 2.7767487 2.6175232 5.438347 3.7740173c2.6462708 1.1673431 6.108536 2.2355957 10.386803 3.2047424c-1.0377579 1.6531067 -2.056076 3.7719269 -3.0549545 6.3564453c-1.0383759 2.8209991 -1.3706741 4.4950867 -0.9968872 5.0222473c0.72789764 1.0265808 1.9646835 1.5046997 3.7103577 1.434372c1.7456741 -0.07034302 3.537613 -0.75720215 5.3758087 -2.0605927l0.9948044 -1.0806274c1.293663 -1.5843964 2.2852325 -2.7669525 2.9747086 -3.547699c5.0234146 -5.771698 8.447762 -9.513153 10.273048 -11.224335c2.9546661 -2.84552 7.291046 -6.2746735 13.00914 -10.287445c6.269562 -4.403778 11.455841 -7.9491425 15.558868 -10.636032c4.109558 -2.6776733 7.1358795 -4.496872 9.078888 -5.4576263c1.3585205 -0.12937927 2.6581726 -0.6339569 3.8989563 -1.5137482c3.6304626 -2.5742035 5.3946686 -6.66037 5.292633 -12.258484c-0.0566864 -4.4628296 -0.94081116 -7.901161 -2.652359 -10.31501z" fill-rule="evenodd"/><path fill="#000000" d="m201.18759 149.19244c-0.8262634 -1.1652985 -2.1571045 -1.6949005 -3.9924622 -1.5887451c-1.8135223 0.104522705 -3.7082977 0.8573761 -5.6843567 2.2585144c-1.4705658 1.0427246 -3.6206512 2.6367188 -6.450241 4.782074c-2.8230438 2.1545563 -4.9698334 3.7532196 -6.440399 4.795929c-4.733368 3.3562317 -11.441574 7.806946 -20.124557 13.352188c-8.661133 5.5435944 -15.358368 9.993546 -20.091736 13.349777c-1.3786621 0.97753906 -3.3843536 2.5317078 -6.017044 4.6625214c-2.626175 2.1400452 -4.628563 3.6988678 -6.00721 4.676407c-2.0679855 1.4663239 -3.4797592 3.0302277 -4.2353287 4.6917267c-0.7555771 1.661499 -0.7005615 3.1026459 0.16504669 4.323456c0.84593964 1.193039 2.1811218 1.7125549 4.0056076 1.5585632c1.8310089 -0.14476013 3.7805328 -0.9502716 5.8485107 -2.4165955c1.3786469 -0.97753906 3.3876038 -2.5270996 6.0268707 -4.648651c2.639267 -2.1215668 4.648239 -3.671112 6.026886 -4.6486664c2.1598816 -1.5314789 4.4477234 -3.0286102 6.8635254 -4.491379c2.84906 -1.7282867 5.189377 -3.2000885 7.020981 -4.4154053c9.524673 -4.585434 17.97226 -7.573227 25.342728 -8.963425c8.118668 -1.5037384 13.279678 -0.7018738 15.4830475 2.4056091c1.573822 2.219635 -2.6024017 6.8486023 -12.528702 13.886932c-1.2867432 0.9123688 -3.5056915 2.409256 -6.6567993 4.4907227c-3.144577 2.090683 -5.3602295 3.5922394 -6.6469727 4.504608c-4.6874084 3.3236542 -9.581787 7.085907 -14.683105 11.286774l-14.269989 11.869415c-4.1033783 3.368164 -5.309128 6.2453003 -3.6172485 8.631409c0.845932 1.1930542 2.1832886 1.7318726 4.0121307 1.6164856c1.8200378 -0.09529114 3.7411041 -0.859787 5.7631226 -2.293518c3.7683258 -2.6719513 8.457062 -6.4482574 14.066269 -11.328873c5.6310425 -4.882248 10.353729 -8.675613 14.167999 -11.380157l6.4402466 -4.503952l6.9621887 -4.9365997c8.377045 -6.106598 14.30249 -11.287903 17.776337 -15.543915c5.240265 -6.3424225 6.2865753 -11.733261 3.138916 -16.172531c-3.4821167 -4.9109344 -12.022659 -6.047516 -25.621643 -3.4097443l7.976593 -5.8434906c5.797104 -4.485733 7.790695 -8.004883 5.980789 -10.557465z" fill-rule="evenodd"/><path fill="#000000" d="m269.266 170.40501c-0.84591675 -1.1930542 -2.1844177 -1.7172089 -4.015442 -1.5724487c-1.8244629 0.1539917 -3.770691 0.9641571 -5.8386536 2.430481c-2.0679932 1.4663086 -4.4609985 3.2534027 -7.179001 5.361328c-2.7114563 2.1171265 -5.101166 3.9088898 -7.1691437 5.3751984c-6.893265 4.887726 -14.881744 10.454712 -23.965424 16.701004c-9.061813 6.2446594 -17.085297 11.843445 -24.070465 16.79634c-3.81427 2.704544 -9.642792 6.594055 -17.48552 11.668594c-7.820877 5.072876 -13.638443 8.961624 -17.452713 11.666168c-6.249893 4.431534 -8.381363 8.048447 -6.394394 10.850723c0.845932 1.1930542 2.1811218 1.7125549 4.0056 1.5585785c1.8310242 -0.14477539 3.7805328 -0.95028687 5.8485107 -2.4165955c6.7554016 -4.789978 13.802811 -9.557678 21.142258 -14.303131c6.2143707 0.68040466 10.949036 1.0757751 14.203995 1.1860962l-11.389603 19.145813c-4.2761536 7.4099884 -8.223465 13.481888 -11.841934 18.215714c-2.0752106 2.7222595 -2.5718079 4.846405 -1.4897919 6.372406c0.8065796 1.1375427 2.1844482 1.6685486 4.13356 1.592926c1.9556732 -0.066345215 3.8526 -0.7512207 5.690811 -2.0546265c2.895172 -2.052826 7.6400757 -8.606873 14.234741 -19.66217l14.0399475 -23.589264c11.123718 -0.38232422 21.204224 -1.2132416 30.241516 -2.4927826c2.0870361 -0.27067566 3.911789 -0.95996094 5.4742584 -2.0678406c1.8841553 -1.3359833 3.227066 -2.9483185 4.0286865 -4.8370667c0.808197 -1.8794708 0.82865906 -3.36026 0.061416626 -4.442337c-0.74757385 -1.0543213 -2.227188 -1.4853363 -4.4388733 -1.2930603l-22.13977 1.939148c-8.177216 0.54460144 -15.99324 0.62461853 -23.44809 0.24006653c7.956848 -5.7252502 15.982544 -11.353394 24.077087 -16.884415l22.402878 -15.447144c2.113922 -1.4989014 4.5539856 -3.3332672 7.32016 -5.503113c2.7814636 -2.1807098 5.229187 -4.020508 7.343109 -5.519409c2.0679932 -1.4663239 3.4732056 -3.039505 4.2156677 -4.7194824c0.7489929 -1.6707611 0.7005615 -3.1026459 -0.14538574 -4.2957z" fill-rule="evenodd"/><path fill="#000000" d="m261.30978 267.7329c2.6951904 3.801117 2.3579712 8.584961 -1.0116882 14.351501c-3.1200256 5.339386 -8.103714 10.4366455 -14.951019 15.291779c-6.9851685 4.952881 -13.736267 7.800995 -20.253265 8.544312c-6.5169983 0.74334717 -11.201782 -0.8965454 -14.054352 -4.9196167c-1.5148163 -2.1364136 -2.4455109 -4.3742676 -2.7920837 -6.7135925c-0.14906311 -3.5217285 -0.19024658 -6.3069153 -0.123535156 -8.35556l11.275452 -8.057495l10.7239685 -7.666443l11.984375 -8.372528c5.499222 0.35357666 9.190445 0.73831177 11.073669 1.1541748c3.8058167 0.8871765 6.5152893 2.4683533 8.128479 4.743469zm38.210907 -50.421875c-1.1410217 -1.6092377 -3.4377747 -1.8778076 -6.890259 -0.80574036c-2.6976624 0.8704376 -5.4251404 2.2832031 -8.182434 4.2382965c-3.4006958 2.4112701 -9.790619 6.9212494 -19.16983 13.529953c-9.363861 6.597824 -15.72316 11.08609 -19.07788 13.464783c-4.871231 3.4539795 -12.117966 8.703537 -21.740204 15.748611c-9.600357 7.0434875 -16.836166 12.292236 -21.707413 15.746216c-1.1948242 0.8471985 -2.990326 2.0647278 -5.386505 3.6525574c-2.3896027 1.5971069 -4.1818237 2.8192444 -5.376663 3.6664429c-1.8381958 1.3033752 -3.1033478 2.7494507 -3.795456 4.338135c-0.70085144 1.6088257 -0.67749023 2.9403687 0.07006836 3.99469c0.90496826 1.2762756 2.7751312 1.5763245 5.610504 0.90011597c-0.29818726 5.4232483 1.0576935 10.257416 4.067642 14.502441c4.308365 6.0762634 11.561935 8.563171 21.760712 7.4607544c10.198776 -1.102417 20.537048 -5.368286 31.014801 -12.797607c10.385864 -7.3641663 17.90091 -15.31955 22.545166 -23.86612c4.946411 -9.09436 5.304779 -16.624176 1.0751038 -22.589447c-1.3574219 -1.9144287 -3.4916077 -3.4796143 -6.4025574 -4.695572c-2.889038 -1.2175598 -6.5450134 -2.0720367 -10.967926 -2.5633698l17.63684 -12.380463l15.184784 -10.579254c0.6433716 -0.45619202 1.634613 -1.0548096 2.9737854 -1.7958679c1.3391418 -0.7410736 2.3304138 -1.3396912 2.9737854 -1.7958832c3.9980774 -2.8348694 5.2593994 -5.2927704 3.7839355 -7.3736725z" fill-rule="evenodd"/><path fill="#000000" d="m295.52127 315.39822c3.0493164 4.300537 3.5816956 8.947235 1.5971375 13.9401245c-4.501892 -0.018371582 -10.555237 -1.1047974 -18.160095 -3.2592468l-19.123535 -5.640686c9.518372 -5.081299 17.241882 -8.035187 23.170471 -8.861633c5.9439087 -0.8373108 10.115936 0.43649292 12.516022 3.8214417zm12.407867 -8.797913c-4.5050964 -6.3536987 -12.516907 -8.302948 -24.035492 -5.8477783c-10.566864 2.2389832 -21.824463 7.594513 -33.772797 16.066559c-10.33989 7.331604 -16.877045 15.156464 -19.61148 23.47461c-2.4387207 7.566437 -1.4350433 14.484894 3.011032 20.75534c2.8525696 4.0230713 7.3463135 7.0492554 13.481216 9.078552c7.1978607 2.3596191 13.34729 1.7309875 18.448303 -1.8859253c1.608429 -1.1404724 2.745575 -2.523529 3.411438 -4.149231c0.68774414 -1.6272888 0.6873474 -2.9264832 -0.0012207031 -3.897583c-0.76724243 -1.0820618 -2.7184143 -1.2204285 -5.853546 -0.41503906c-3.119812 0.7944946 -6.598694 0.092437744 -10.436615 -2.1062317c-3.024414 -1.7330933 -5.215332 -3.5568848 -6.572769 -5.4713135c-2.1836853 -3.0797424 -3.1334534 -6.464569 -2.8493195 -10.1545105c0.29071045 -3.680664 1.7923584 -7.6501465 4.504944 -11.908417l23.74939 7.0513306c6.679596 2.0183105 11.338409 3.134552 13.97644 3.3487854c5.991333 0.46328735 11.28479 -0.9343262 15.88028 -4.19281c6.571594 -4.6596375 10.17392 -9.903198 10.807007 -15.730713c0.507843 -4.7380066 -0.87109375 -9.409882 -4.1368103 -14.015625z" fill-rule="evenodd"/><path fill="#000000" d="m346.9117 360.26395c-4.6034546 -6.4924316 -13.044647 -9.388092 -25.323517 -8.687012c7.608856 -5.4368286 10.449341 -9.5147705 8.521393 -12.233826c-1.7312317 -2.4415894 -4.917572 -2.0168457 -9.559021 1.2742004c-1.5165405 1.0753174 -3.8175354 2.6512756 -6.903015 4.7278748c-3.078949 2.0858765 -5.3766785 3.6664429 -6.8931885 4.7417297l-48.390717 34.3118c-4.641464 3.2910767 -6.096588 6.1574097 -4.3653717 8.598999c1.9476166 2.7467957 5.2421722 2.4746704 9.883621 -0.81640625l37.716064 -26.86795c7.1808167 -2.6316223 13.140198 -3.7717896 17.878174 -3.4204407c5.085785 0.3548584 9.619415 2.4146423 13.600891 6.179291l-5.7018127 4.23053c-2.2846985 1.7450867 -3.863617 2.9271545 -4.7367554 3.5462646c-4.5495605 3.225891 -5.978424 6.031891 -4.2865295 8.417999c1.8295593 2.5803223 5.6853943 1.9310608 11.567505 -1.9478455c0.8468628 -0.55877686 2.4651184 -1.6853638 4.8547974 -3.3797607c5.652466 -4.0079346 9.486877 -7.560669 11.503235 -10.658142c2.016327 -3.0975037 2.2277527 -5.769928 0.6342468 -8.017303z" fill-rule="evenodd"/><path fill="#000000" d="m390.88754 372.17392c-0.8262634 -1.1652832 -2.1603394 -1.6994934 -4.002289 -1.6026001c-1.8266296 0.08602905 -3.7049866 0.813324 -5.6351013 2.1818848c-1.7463074 1.2382202 -4.545227 3.3131714 -8.39679 6.224823c-3.8296814 2.9100647 -6.9164124 5.195984 -9.260101 6.8578186l-5.025116 -9.570709c-0.8262634 -1.1653137 -2.1713257 -1.6500549 -4.035187 -1.4541931c-1.8638611 0.1958313 -3.8068237 1.0105896 -5.8288574 2.444336c-3.9980774 2.8348694 -5.3974 5.682495 -4.1979675 8.542847c2.2878723 4.590271 4.080963 7.9469604 5.3792114 10.070129l-39.666473 29.376648c-1.7462769 1.2382202 -4.395233 3.053955 -7.9468384 5.4471436c-3.5516052 2.393219 -6.2005615 4.208954 -7.9468384 5.447174c-1.7922668 1.2707825 -2.9972534 2.7367554 -3.6150208 4.3977966c-0.61120605 1.6703491 -0.52334595 3.0603943 0.2635498 4.1701965c2.1443481 3.0242615 8.209259 0.9128723 18.194733 -6.334198l3.4860535 -2.5343628l3.00354 -2.1921997l40.178497 -29.677185c2.912384 2.6464539 4.5947876 4.2887573 5.0472717 4.9269104c0.41311646 0.5826416 0.8524475 1.2996216 1.3179321 2.1509094c0.4720459 0.86053467 0.91464233 1.5821228 1.3277588 2.164795c0.84594727 1.1930542 2.1888123 1.7071533 4.028595 1.5422668c1.8616638 -0.16644287 3.8034973 -0.96658325 5.825531 -2.400299c3.4006653 -2.4112854 4.960541 -4.7890015 4.679596 -7.133148c-0.16998291 -1.2137146 -1.2779846 -3.2633362 -3.323944 -6.148834c-0.35412598 -0.49942017 -2.1185303 -2.2086792 -5.293274 -5.1277466l4.3033447 -2.9887695l4.0570984 -2.751648c2.389679 -1.694397 4.4051514 -3.1860352 6.0464783 -4.4749146c6.4602966 -5.2061462 8.805176 -9.05777 7.034607 -11.554871z" fill-rule="evenodd"/><path fill="#000000" d="m403.52298 472.538c1.7705688 2.4970703 1.0086365 5.8378296 -2.285797 10.022217c-3.2725525 4.1828003 -9.090729 9.23941 -17.45456 15.16983c-5.9282227 4.2034607 -11.314178 6.8341064 -16.157898 7.8919983c-5.572235 1.1991882 -9.587891 0.064697266 -12.047028 -3.403473c-2.1443481 -3.0242615 -3.323639 -6.732788 -3.5378723 -11.12558c11.48877 -8.14621 22.321198 -16.098022 32.497253 -23.855469c5.1320496 -0.2616577 8.885742 -0.1296997 11.261108 0.3958435c3.3399658 0.7171631 5.9148865 2.3520508 7.7247925 4.9046326zm6.571747 -29.739075c-1.1213379 -1.5814819 -3.3327942 -1.8271484 -6.6343384 -0.73703c-2.7632751 0.87527466 -5.7763367 2.469696 -9.039154 4.783203l-13.550659 10.546356c-8.035858 6.1982117 -17.056335 12.906952 -27.061493 20.126282l-27.50412 19.501984l-27.66159 19.426025c-2.0220032 1.4337769 -3.4075317 2.986023 -4.156555 4.6567383c-0.74243164 1.6799927 -0.69070435 3.116516 0.1552124 4.3095703c0.84594727 1.1930542 2.1811523 1.7125854 4.005615 1.5585938c1.8310242 -0.14477539 3.7575378 -0.934021 5.7795715 -2.3677368l33.00882 -23.28006c0.89019775 4.372162 2.3189392 7.9454956 4.2862244 10.720062c4.0329285 5.687805 10.659973 7.826721 19.881104 6.41687c8.715759 -1.3433838 18.036804 -5.5342407 27.963074 -12.572571c10.891357 -7.722595 18.908081 -14.970459 24.05014 -21.743591c6.4949036 -8.566223 7.725891 -15.693268 3.6929321 -21.381073c-1.4361267 -2.0254211 -3.6227722 -3.6645813 -6.5599365 -4.9175415c-2.9218445 -1.263794 -6.584381 -2.1275024 -10.98761 -2.5911255c1.2341919 -0.7917175 2.6127625 -1.6232605 4.135742 -2.4946594c1.1619263 -0.6987915 1.949707 -1.1948242 2.3633118 -1.4880981c1.8381958 -1.3034058 3.1230469 -2.7703552 3.8545227 -4.400879c0.75338745 -1.6321411 0.74645996 -2.9892578 -0.020812988 -4.0713196z" fill-rule="evenodd"/><path fill="#000000" d="m479.6878 466.43985c-1.927948 -2.7190552 -5.1896667 -2.4493103 -9.785187 0.80914307c-7.260895 5.148407 -15.6203 10.971466 -25.078186 17.469177c-9.442566 6.486847 -17.794281 12.304474 -25.055176 17.45288c-5.5605774 3.942749 -14.024933 9.715149 -25.393127 17.31723c-11.352844 7.5911865 -19.80954 13.358154 -25.370117 17.300903c-4.6874084 3.3236694 -6.0671387 6.3449707 -4.1391907 9.064026c1.7312012 2.4415894 4.99292 2.171875 9.785156 -0.80914307c7.188507 -4.763489 12.597992 -8.432373 16.228455 -11.006531l34.70215 -23.667725c7.2609253 -5.148407 15.61264 -10.966034 25.055206 -17.45288c9.457886 -6.497711 17.817291 -12.32077 25.078186 -17.469147c4.59552 -3.258484 5.919464 -6.261139 3.9718323 -9.007935z" fill-rule="evenodd"/><path fill="#000000" d="m454.65558 539.53876c0.3147583 0.4439087 0.52438354 1.1778564 0.6288452 2.2017212c0.11099243 1.0331421 0.09390259 2.3725586 -0.051361084 4.0182495c-2.835846 1.552124 -5.473694 3.0750732 -7.913574 4.5688477c-2.4179993 1.4921265 -4.6150208 2.9387207 -6.591095 4.339905c-6.0660706 4.3011475 -14.873383 11.213196 -26.421936 20.736023c-3.8981934 0.053894043 -6.63797 -0.109069824 -8.21933 -0.48876953c-2.9265137 -0.7184448 -5.334076 -2.4094849 -7.2226562 -5.073059c-2.282074 -3.2184448 -2.1094666 -6.9682617 0.51782227 -11.249451c2.6272888 -4.281189 7.709259 -9.09375 15.24588 -14.437683c7.582611 -5.376465 15.381683 -8.564636 23.397278 -9.564453c8.037445 -1.0014038 13.580841 0.6481323 16.630127 4.9486694zm11.817444 -9.192322c-4.5444336 -6.4091797 -12.408203 -9.123596 -23.591278 -8.1432495c-11.176544 0.989624 -22.325378 5.427185 -33.446503 13.312744c-11.764496 8.341675 -19.502502 15.93396 -23.213959 22.776733c-3.9610596 7.2699585 -3.639862 14.151123 0.9635925 20.643555c0.96395874 1.3595581 2.7767334 2.6175537 5.438324 3.7740479c2.6462708 1.1673584 6.108551 2.2355957 10.38681 3.204712c-1.0377502 1.6531372 -2.0560608 3.7719116 -3.0549316 6.3564453c-1.0383911 2.821045 -1.370697 4.495117 -0.9969177 5.022278c0.7279053 1.0265503 1.9646912 1.5046997 3.7103577 1.4343262c1.745697 -0.0703125 3.5376282 -0.7571411 5.375824 -2.0605469l0.994812 -1.0806274c1.2936401 -1.5844116 2.2852173 -2.7669678 2.974701 -3.5477295c5.023407 -5.7716675 8.447754 -9.513123 10.273071 -11.224304c2.9546509 -2.84552 7.2910156 -6.274658 13.009125 -10.287476c6.269562 -4.4037476 11.455841 -7.9490967 15.558868 -10.635986c4.109558 -2.6776733 7.1358643 -4.496887 9.078888 -5.4576416c1.3585205 -0.12939453 2.6581726 -0.63397217 3.8989563 -1.513794c3.6304626 -2.5741577 5.3946533 -6.6603394 5.292633 -12.258484c-0.05670166 -4.4627686 -0.9408264 -7.901123 -2.6523743 -10.315002z" fill-rule="evenodd"/><path fill="#000000" d="m497.61673 571.4937c-3.6985168 -5.2161865 -12.537842 -5.994934 -26.518005 -2.3364258c-12.582153 3.2927246 -23.537659 8.246399 -32.866547 14.861145c-9.788422 6.9405518 -16.253265 14.526489 -19.394531 22.757874c-3.0032349 7.841614 -2.4884033 14.606323 1.5445557 20.29419c1.750885 2.4692993 5.3329163 4.599243 10.746063 6.3897705c6.1545715 2.0570679 10.90921 1.8962402 14.263947 -0.4824829c1.7462769 -1.2382202 3.0278625 -2.7097778 3.844696 -4.414734c0.83218384 -1.7158203 0.88430786 -3.0870361 0.15640259 -4.1135864c-0.2557373 -0.36071777 -1.0463562 -0.6965332 -2.3718262 -1.0075684l-7.6968994 -1.7973022c-2.808319 -0.84399414 -4.8026733 -2.0983276 -5.9830627 -3.7630615c-2.5968018 -3.6623535 -3.090088 -7.815613 -1.4797974 -12.459778c1.7220459 -4.9735107 5.616089 -9.610901 11.682159 -13.912109c5.6065063 -3.9753418 13.142151 -7.4213867 22.606873 -10.338257c10.331116 -3.1558838 16.5 -3.3187866 18.506622 -0.48876953c2.6361694 3.7178955 3.4546814 7.161072 2.4554749 10.329529c-0.38778687 1.1088257 -0.7777405 2.2470703 -1.1699524 3.4146118c-0.3703003 1.1659546 -0.27020264 2.151245 0.3003235 2.9558716c0.7279053 1.0265503 2.0117493 1.4087524 3.851593 1.1465454c1.8551636 -0.27301025 3.6558838 -1.0286865 5.402191 -2.2669067c3.906189 -2.7697144 5.709961 -7.2383423 5.4113464 -13.405884c-0.2664795 -4.856079 -1.363678 -8.643616 -3.291626 -11.362671z" fill-rule="evenodd"/><path fill="#000000" d="m515.04144 624.99524c3.0492554 4.300537 3.581665 8.947266 1.5971069 13.9401245c-4.501892 -0.018371582 -10.555237 -1.1047974 -18.160095 -3.2592773l-19.123535 -5.640625c9.518372 -5.081299 17.241882 -8.035217 23.170471 -8.861633c5.9439087 -0.8373413 10.115906 0.4364624 12.516052 3.8214111zm12.407837 -8.797913c-4.505066 -6.3536987 -12.516907 -8.3029785 -24.035492 -5.8477783c-10.566864 2.2390137 -21.824463 7.5945435 -33.772797 16.06659c-10.339905 7.331543 -16.877045 15.156433 -19.61148 23.474548c-2.4387207 7.5664673 -1.4350281 14.484924 3.0110474 20.755371c2.8525696 4.0230713 7.346283 7.0492554 13.481201 9.078552c7.1978455 2.3596191 13.34729 1.7310181 18.448303 -1.8859253c1.608429 -1.1404419 2.745575 -2.5235596 3.411438 -4.149231c0.68774414 -1.6273193 0.6873474 -2.9265137 -0.0012207031 -3.897583c-0.76724243 -1.0820923 -2.7184143 -1.220398 -5.853546 -0.41503906c-3.119812 0.7944946 -6.598694 0.09240723 -10.436615 -2.1062012c-3.024414 -1.7331543 -5.215332 -3.5568848 -6.572754 -5.4713135c-2.1837158 -3.079773 -3.133484 -6.4645996 -2.8493347 -10.154541c0.29071045 -3.680664 1.7923584 -7.6501465 4.504944 -11.908447l23.74939 7.0513306c6.679596 2.0183105 11.338409 3.1345825 13.97644 3.348816c5.991333 0.46325684 11.28479 -0.9343262 15.88031 -4.19281c6.571533 -4.659607 10.173889 -9.903198 10.807007 -15.730713c0.5078125 -4.737976 -0.8711548 -9.409851 -4.136841 -14.015625z" fill-rule="evenodd"/><path fill="#000000" d="m589.5113 622.35046c-0.82629395 -1.1653442 -2.1604004 -1.6995239 -4.0023193 -1.6026611c-1.8265991 0.08605957 -3.705017 0.8133545 -5.635132 2.1819458c-2.25177 1.5966187 -4.335144 3.2684326 -6.250183 5.015442c-1.8931274 1.7453613 -4.0115356 3.4489746 -6.3552246 5.11084c-1.9760742 1.401123 -5.882202 4.0248413 -11.718323 7.871155l-50.75403 35.799866l-10.290558 7.109009c-5.619568 3.859497 -9.082489 6.0856323 -10.388763 6.6782837c-1.5556946 0.72784424 -2.655243 1.3198242 -3.2986145 1.776001c-1.8381958 1.3034058 -3.0957336 2.8413696 -3.7726135 4.6138306c-0.6768799 1.7724609 -0.61203 3.227478 0.19454956 4.3650513c1.1607056 1.6369629 3.4410706 1.8338013 6.8411255 0.59039307c3.846405 -1.3930664 14.524048 -8.297058 32.03293 -20.711853c9.379456 -2.9396973 15.926453 -4.66333 19.641174 -5.1708374c7.252075 -0.9727173 12.12738 0.3027954 14.6258545 3.826416c1.8492432 2.6080933 -1.5458984 6.9750977 -10.185486 13.101013c-1.1948242 0.847229 -3.036255 2.097351 -5.524353 3.7503662c-2.4815063 1.6622314 -4.319702 2.9169922 -5.5145264 3.7641602c-4.2738037 3.0303955 -9.56543 7.157715 -15.874817 12.381897c-6.565399 5.44751 -11.5060425 9.826294 -14.821869 13.136353c-3.059784 3.086853 -3.8912964 5.6152344 -2.4945068 7.585144c0.8262329 1.1653442 2.170166 1.7133789 4.0317993 1.6442261c1.846283 -0.058288574 3.7115173 -0.7553711 5.5956726 -2.0913696c0.55145264 -0.39105225 1.1784668 -0.91900635 1.881012 -1.5839233c3.6965332 -3.454956 8.0954895 -7.282837 13.196808 -11.483704l13.747803 -10.99884l12.930054 -9.668457c8.15387 -6.0317383 13.544312 -10.89624 16.171265 -14.593506c3.7434692 -5.23938 3.9822998 -10.161926 0.71661377 -14.767639c-2.0656738 -2.913269 -5.27594 -4.7786865 -9.630859 -5.5961914c-4.333008 -0.81915283 -9.833679 -0.5740967 -16.501892 0.7351074l6.03656 -4.3428345c5.0354004 -3.6120605 10.116638 -7.110718 15.243774 -10.495972c5.376587 -3.5204468 10.477539 -6.991394 15.302795 -10.412781c3.5845337 -2.541626 7.448181 -5.614746 11.591064 -9.219421c3.7686768 -3.2559204 4.8463745 -6.0214233 3.2332153 -8.296509z" fill-rule="evenodd"/><path fill="#000000" d="m580.7155 722.1457c0.020324707 0.028625488 0.04046631 0.057373047 0.060546875 0.086364746c4.3410645 6.2197876 -2.5183716 15.440674 -20.57843 27.662537c-6.669922 4.520874 -12.771118 6.970703 -18.303528 7.3494873c-4.9680786 0.39556885 -8.475098 -0.84942627 -10.521057 -3.7349854c-1.7509155 -2.4692993 -1.736084 -5.7111816 0.04449463 -9.725586c2.168213 -4.831238 6.5840454 -9.609253 13.247559 -14.334045c6.663513 -4.7247925 13.231079 -8.026489 19.702698 -9.905151c8.035889 -2.3029785 13.485107 -1.4359131 16.347717 2.6013794zm14.437439 -9.294678c-4.918213 -6.9363403 -13.418884 -9.039368 -25.501953 -6.30896c-10.265015 2.2750854 -20.531433 7.1779785 -30.799255 14.708618c-10.569824 7.786499 -17.697693 15.800903 -21.383667 24.043213c-3.3179932 7.397705 -3.324463 13.427185 -0.01940918 18.08844c4.15094 5.854248 11.5755005 7.6570435 22.273682 5.408386c9.437927 -1.9805908 19.287476 -6.5462036 29.548523 -13.696777c9.617676 -6.694397 17.02063 -13.590454 22.208801 -20.68811c6.383423 -8.820801 7.60791 -16.005737 3.6732788 -21.55481z" fill-rule="evenodd"/><path fill="#000000" d="m658.0129 717.938c-1.9279175 -2.7189941 -5.1896973 -2.4492798 -9.785156 0.80914307c-7.2609253 5.1484375 -15.6203 10.971497 -25.078186 17.469177c-9.442566 6.4868774 -17.794312 12.304504 -25.055237 17.45288c-5.560547 3.942749 -14.024902 9.715149 -25.393066 17.3172c-11.352844 7.5911865 -19.80957 13.358215 -25.370117 17.300964c-4.687439 3.3236084 -6.0671997 6.3449707 -4.139221 9.064026c1.7312012 2.4415894 4.99292 2.171875 9.785156 -0.80914307c7.1885376 -4.763489 12.598022 -8.432373 16.228455 -11.006592l34.70215 -23.667664c7.2609253 -5.1484375 15.612671 -10.966064 25.055237 -17.45288c9.457825 -6.4977417 17.81726 -12.320801 25.078125 -17.469177c4.59552 -3.258484 5.9194946 -6.2611084 3.9718628 -9.007935z" fill-rule="evenodd"/><path fill="#000000" d="m631.9372 791.02625c1.7312622 2.4416504 2.2821045 5.1989746 1.6526489 8.272034c-0.61413574 3.0621948 -2.4085693 6.4401855 -5.383362 10.13385l-8.193054 5.684265l-8.025696 5.628174l-11.836792 8.580627c-1.1026611 0.19805908 -2.1002197 0.3008423 -2.9927368 0.30822754c-4.501892 -0.018371582 -7.5008545 -0.20599365 -8.996948 -0.5628052c-2.5656128 -0.59906006 -4.6746826 -2.0639648 -6.3272095 -4.3945312c-2.4197998 -3.4127197 -2.3944092 -7.905884 0.076049805 -13.479614c2.4770508 -5.564453 6.6796265 -10.448425 12.607849 -14.651855c9.19104 -6.516968 16.895203 -10.228516 23.11261 -11.134705c6.232727 -0.9169922 11.001587 0.95513916 14.306641 5.616333zm62.400574 -19.666565c-1.5344849 -2.1641235 -4.4746094 -1.9765015 -8.820374 0.5628052c-7.083252 4.2302246 -20.436096 13.010254 -40.058594 26.340027l1.9824219 -7.284668c0.41503906 -2.9210205 -0.51849365 -5.9907227 -2.8005981 -9.2092285c-4.446045 -6.270447 -11.761963 -8.747864 -21.947754 -7.432312c-10.179199 1.3247681 -21.403809 6.3372803 -33.67383 15.037415c-10.156067 7.201233 -17.096802 15.04126 -20.822266 23.52008c-3.6663208 8.270081 -3.4633179 15.276733 0.6090088 21.02008c1.6525269 2.3305664 3.8598633 4.128845 6.6220093 5.3946533c2.7687378 1.2751465 6.0791016 2.0480347 9.931152 2.3186646c-3.5654297 3.7372437 -4.7382812 6.4660034 -3.5185547 8.186218c0.7279053 1.0265503 1.9646606 1.5046997 3.7103271 1.4343872c1.7457275 -0.070373535 3.5376587 -0.75720215 5.3758545 -2.060608c0.41357422 -0.29327393 0.9224243 -0.69573975 1.5264282 -1.2073975c7.2025146 -6.399536 18.455261 -15.024658 33.7583 -25.875427c6.755432 -4.789978 13.628845 -9.413452 20.6203 -13.870483c22.6156 -14.367981 37.11725 -23.81659 43.505005 -28.345886c4.4576416 -3.1607056 5.791382 -6.003479 4.0011597 -8.52832z" fill-rule="evenodd"/><path fill="#000000" d="m666.8966 839.1619c3.0493164 4.300537 3.581665 8.947266 1.5971069 13.940186c-4.501892 -0.018371582 -10.555237 -1.1047974 -18.160095 -3.2592773l-19.123535 -5.640686c9.518372 -5.081299 17.241882 -8.035156 23.170471 -8.861633c5.9439087 -0.8372803 10.115967 0.43652344 12.516052 3.8214111zm12.407837 -8.797852c-4.505066 -6.3536987 -12.516907 -8.3029785 -24.035461 -5.8478394c-10.566895 2.2390137 -21.824463 7.5945435 -33.772827 16.06659c-10.339905 7.331604 -16.877014 15.156494 -19.61145 23.47461c-2.4387207 7.5664673 -1.4350586 14.484863 3.0109863 20.755371c2.8526 4.0230713 7.3463135 7.0492554 13.481262 9.078491c7.197815 2.3596802 13.34729 1.7310181 18.448303 -1.8858643c1.6083984 -1.1405029 2.7455444 -2.5235596 3.411438 -4.149231c0.68774414 -1.6273193 0.6873169 -2.9265137 -0.0012207031 -3.897583c-0.76727295 -1.0820923 -2.7184448 -1.220459 -5.8535767 -0.41503906c-3.119812 0.7944946 -6.598694 0.09240723 -10.436584 -2.1062622c-3.024414 -1.7330933 -5.215332 -3.5568848 -6.572815 -5.4713135c-2.1836548 -3.079712 -3.1334229 -6.4645996 -2.8493042 -10.15448c0.29071045 -3.680725 1.7923584 -7.6501465 4.504944 -11.908447l23.74939 7.0513306c6.6796265 2.0183105 11.33844 3.1345825 13.97644 3.348816c5.991333 0.46325684 11.28479 -0.9343262 15.88031 -4.19281c6.571594 -4.659668 10.173889 -9.903198 10.807007 -15.730713c0.5078125 -4.738037 -0.87109375 -9.409912 -4.136841 -14.015625z" fill-rule="evenodd"/><path fill="#000000" d="m718.28705 884.0277c-4.6034546 -6.4924316 -13.044678 -9.388123 -25.323547 -8.687073c7.6088867 -5.4367676 10.449341 -9.514709 8.521362 -12.233765c-1.7312012 -2.4415894 -4.9175415 -2.0169067 -9.55896 1.2741699c-1.5165405 1.0753174 -3.817566 2.651245 -6.903076 4.7279053c-3.0789185 2.0858154 -5.376648 3.6663818 -6.8931885 4.741699l-48.390686 34.31183c-4.6414795 3.2910767 -6.0965576 6.1574097 -4.3653564 8.598999c1.9476318 2.7467651 5.2421265 2.4746094 9.883606 -0.81640625l37.716064 -26.867981c7.180847 -2.6316528 13.140198 -3.7717896 17.878174 -3.4204712c5.0858154 0.35491943 9.619446 2.4146729 13.600891 6.1793213l-5.7018433 4.23053c-2.284668 1.7450562 -3.8635864 2.927185 -4.7367554 3.5462646c-4.5494995 3.225891 -5.9783936 6.0319214 -4.286499 8.41803c1.8295898 2.5803223 5.685425 1.9310303 11.567505 -1.947876c0.8468628 -0.55877686 2.465149 -1.6853638 4.8547974 -3.3797607c5.652466 -4.0079346 9.486877 -7.560669 11.503235 -10.658142c2.0163574 -3.0974731 2.2277832 -5.7698975 0.63427734 -8.017273z" fill-rule="evenodd"/><path fill="#000000" d="m783.3896 910.9778c-0.94433594 -1.3317871 -2.5419922 -1.9293213 -4.79303 -1.7924805c-2.2510376 0.13677979 -4.479431 0.9871826 -6.6853027 2.5512695c-2.2058105 1.5640869 -3.7457275 3.38562 -4.619629 5.4645996c-0.87390137 2.0789185 -0.8387451 3.7843018 0.10559082 5.116089c0.9442749 1.3317871 2.5354004 1.920044 4.7733154 1.7647705c2.2444458 -0.14605713 4.4696045 -1.0010986 6.675415 -2.5651855c2.2058716 -1.5640869 3.7490234 -3.3809814 4.6295166 -5.4506836c0.8870239 -2.0604858 0.85839844 -3.7565918 -0.085876465 -5.088379zm-33.64789 21.794373c-0.84594727 -1.1930542 -2.1844482 -1.7171631 -4.015442 -1.5724487c-1.8244629 0.1539917 -3.770691 0.96417236 -5.838684 2.430481c-4.319763 3.0629883 -9.810181 6.7475586 -16.471313 11.05365c-6.645752 4.295288 -12.128479 7.9744263 -16.448303 11.037415c-2.7572632 1.9550781 -6.852783 4.928528 -12.286499 8.920288c-5.411865 3.9902344 -9.496399 6.9628296 -12.253723 8.917969c-2.0220337 1.4337158 -3.4075317 2.985962 -4.156555 4.6566772c-0.74243164 1.6799927 -0.69073486 3.116516 0.1552124 4.3095703c0.8656006 1.2208252 2.2073364 1.7495728 4.0252686 1.5863647c1.8179321 -0.16326904 3.737915 -0.96173096 5.7598877 -2.3955078c2.7573242 -1.9550781 6.841919 -4.9277344 12.253723 -8.917908c5.433716 -3.9917603 9.529236 -6.96521 12.28656 -8.920349c4.319763 -3.0629272 9.802551 -6.7420654 16.448303 -11.0373535c6.661072 -4.3061523 12.151489 -7.9907227 16.471252 -11.05365c2.0679932 -1.4663086 3.4732056 -3.0394897 4.2156982 -4.7194824c0.74902344 -1.6707764 0.7005615 -3.1026611 -0.14538574 -4.2957153z" fill-rule="evenodd"/><path fill="#000000" d="m770.5131 949.5026c-2.0066528 -2.830017 -8.225891 -0.5466919 -18.657715 6.8500977c-2.4815674 1.7595825 -6.066162 4.4958496 -10.753784 8.208801c-4.6810303 3.722168 -8.23938 6.4467773 -10.674988 8.173767c-2.7573242 1.9550781 -6.9785156 4.718811 -12.663574 8.291199c-5.6850586 3.5723877 -9.90625 6.3361206 -12.663513 8.29126c-11.810486 8.374268 -16.604187 14.129028 -14.381165 17.264282c0.8065796 1.1375122 2.1516724 1.6709595 4.035095 1.6001587c1.8900757 -0.061462402 3.7771606 -0.7602539 5.661316 -2.0962524c1.1029663 -0.7819824 2.8001099 -2.1868896 5.0914917 -4.2147217c2.2979736 -2.0184937 4.1362915 -3.5165405 5.5149536 -4.4940796c2.5734863 -1.8247681 6.6567993 -4.4907837 12.249939 -7.997986c5.5931396 -3.5072021 9.768372 -6.2383423 12.525696 -8.193481c2.480774 -0.29968262 4.4299927 -0.6185913 5.8477173 -0.9567261l12.581177 -1.5408325c4.7252197 -0.3484497 8.511658 -0.07293701 11.359375 0.8265381c-2.1212158 2.7548218 -5.6173706 5.859253 -10.488647 9.313293c-5.560547 3.942749 -13.53949 10.107544 -23.936829 18.494446c-10.375427 8.385254 -18.343445 14.549255 -23.904053 18.492065c-2.0219727 1.4337158 -3.4151611 2.991333 -4.1795044 4.6729736c-0.7730713 1.7017822 -0.73669434 3.1490479 0.10925293 4.342163c0.84594727 1.1929932 2.1964722 1.7016602 4.0515747 1.526001c1.8463135 -0.15563965 3.7805176 -0.9503174 5.8025513 -2.3840332c4.7333374 -3.3562012 10.543579 -7.8721924 17.430725 -13.5477295l17.519714 -14.298706c4.201782 -3.2294922 8.472351 -6.3618164 12.811829 -9.397034c2.1986084 -0.30810547 5.57489 -0.07531738 10.128906 0.6983032c4.882141 0.7494507 7.687134 1.6374512 8.415039 2.6640625c0.78692627 1.1098022 -0.5531616 3.6026611 -4.0202637 7.4786377c-2.560852 2.8165283 -5.32843 5.487671 -8.302551 8.013489l-20.365845 16.566956c-8.836853 7.0163574 -15.605835 12.566406 -20.306763 16.650146c-3.7226562 3.2232666 -4.777405 5.972534 -3.1642456 8.247681c0.84594727 1.1929932 2.2073975 1.7495117 4.0842896 1.6695557c1.8769531 -0.080078125 3.705017 -0.8133545 5.484192 -2.1999512c17.562378 -14.2873535 30.020264 -24.621704 37.37372 -31.003174c10.688477 -8.787903 16.741882 -13.934814 18.160217 -15.440857c7.0718384 -7.5577393 8.965088 -13.65332 5.6796875 -18.286804c-1.9279175 -2.7190552 -4.4819946 -4.5355225 -7.6621094 -5.449402c-3.164856 -0.92474365 -6.965637 -0.9607544 -11.402405 -0.10803223c6.008301 -6.720215 7.4681396 -12.258362 4.3794556 -16.61438c-1.3967285 -1.9699097 -5.080017 -2.9440308 -11.049744 -2.9222412c-5.9544067 0.010864258 -11.901733 1.038208 -17.841919 3.0819702l7.178894 -5.215332c0.9650879 -0.68426514 2.4158936 -1.6087646 4.352478 -2.7733765c1.9365845 -1.1646729 3.3414307 -2.0565796 4.2145386 -2.6757202c1.8381958 -1.3033447 3.2172241 -2.9621582 4.137085 -4.9764404c0.9263916 -2.0049438 1.0059204 -3.548462 0.2387085 -4.630554z" fill-rule="evenodd"/><path fill="#000000" d="m812.57465 1044.3247c0.3147583 0.44384766 0.524353 1.1777344 0.6288452 2.2016602c0.11102295 1.0332031 0.09387207 2.3725586 -0.0513916 4.0183105c-2.8358154 1.552124 -5.473694 3.0750732 -7.913574 4.5687256c-2.4179688 1.4921875 -4.61499 2.9388428 -6.5910645 4.339966c-6.066101 4.3011475 -14.873413 11.213135 -26.421936 20.735962c-3.8981934 0.053955078 -6.6380005 -0.10900879 -8.21936 -0.48876953c-2.9265137 -0.7183838 -5.3340454 -2.4094238 -7.2226562 -5.072998c-2.2820435 -3.2185059 -2.109436 -6.9682617 0.51782227 -11.249512c2.6273193 -4.281128 7.7092896 -9.09375 15.245911 -14.437622c7.5825806 -5.376465 15.381653 -8.564575 23.397278 -9.564453c8.037415 -1.0014648 13.580811 0.64819336 16.630127 4.9487305zm11.817444 -9.192383c-4.5444336 -6.4091797 -12.408203 -9.123535 -23.591309 -8.143188c-11.176514 0.989624 -22.325378 5.427124 -33.446472 13.312622c-11.764526 8.341797 -19.502502 15.93396 -23.21399 22.776855c-3.9610596 7.2698975 -3.6398926 14.151123 0.96362305 20.643555c0.9639282 1.3594971 2.7767334 2.6174316 5.4382935 3.7739258c2.6463013 1.1673584 6.1085815 2.2355957 10.386841 3.204834c-1.0377808 1.6530762 -2.0560913 3.7718506 -3.0549927 6.3564453c-1.0383301 2.8209229 -1.3706665 4.494995 -0.9968872 5.022217c0.7279053 1.0266113 1.9647217 1.5046387 3.7103882 1.4343262c1.7456665 -0.0703125 3.5375977 -0.75720215 5.3757935 -2.0605469l0.994812 -1.0806885c1.2936401 -1.5843506 2.2852173 -2.7669678 2.9747314 -3.5476074c5.0233765 -5.7717285 8.447754 -9.513184 10.27301 -11.224365c2.9546509 -2.845581 7.2910767 -6.274658 13.009155 -10.287476c6.2695923 -4.4038086 11.455872 -7.9490967 15.558899 -10.635986c4.109558 -2.6777344 7.1358643 -4.4969482 9.078857 -5.4576416c1.3585205 -0.12939453 2.6582031 -0.6340332 3.8989868 -1.513794c3.6304321 -2.5742188 5.3946533 -6.6602783 5.2926025 -12.258423c-0.05670166 -4.4628906 -0.9407959 -7.901245 -2.6523438 -10.315063z" fill-rule="evenodd"/><path fill="#000000" d="m843.67725 1088.628c0.90496826 1.2763672 1.43573 2.755371 1.5923462 4.437256c0.15661621 1.6817627 -0.08392334 3.5826416 -0.72161865 5.7026367c-11.087769 6.861206 -19.319763 11.76001 -24.696045 14.696533c-4.9694824 3.0233154 -10.712769 5.0526123 -17.22992 6.0878906c-7.107788 1.0788574 -11.655212 0.21716309 -13.642151 -2.585205c-2.1640625 -3.052002 -2.1096802 -6.5302734 0.1630249 -10.434937c2.272705 -3.9047852 6.7407837 -8.219482 13.404297 -12.944214c8.363831 -5.930542 16.171875 -9.528076 23.424133 -10.792725c8.066101 -1.3830566 13.968079 0.5611572 17.705933 5.8327637zm11.324341 -7.404175c-5.4297485 -7.657715 -13.624634 -10.936523 -24.584656 -9.836304c-10.631897 1.0759277 -22.151733 6.0128174 -34.55963 14.810791c-9.053162 6.4191895 -15.3064575 13.21582 -18.76001 20.390015c-3.4316406 7.1724854 -3.3670654 13.269653 0.19372559 18.291626c1.8886108 2.6635742 4.7129517 4.211914 8.4730835 4.6450195c3.7666626 0.44250488 8.478943 -0.21643066 14.13678 -1.9766846l0 0c-11.685669 8.160767 -20.803894 13.562866 -27.354736 16.20642c-9.845886 3.937622 -16.72638 3.291748 -20.641418 -1.9376221c-0.21343994 -0.28112793 -0.42034912 -0.56311035 -0.62072754 -0.8457031c-1.7702637 -2.496582 -3.032898 -5.050293 -3.788086 -7.6610107c-0.85595703 -2.8953857 -1.6380615 -4.8425293 -2.3463135 -5.8413086c-1.7115479 -2.4139404 -4.6123047 -2.1707764 -8.702332 0.72924805c-3.6304321 2.5742188 -4.7807007 6.0166016 -3.4508057 10.327148c0.9434204 3.0836182 2.7233276 6.470459 5.3398438 10.160645c4.4656982 6.2980957 10.015869 9.596802 16.650452 9.895874c5.486145 0.23779297 12.394226 -1.6584473 20.724243 -5.6887207c6.5248413 -3.1671143 14.4418335 -7.9260254 23.750854 -14.276489l23.840088 -15.465454c2.3764648 -1.5183105 6.961792 -4.206665 13.7561035 -8.065308c5.881775 -3.2949219 10.454041 -6.099121 13.716858 -8.412598c5.3308105 -3.7799072 7.0126343 -7.203125 5.045471 -10.269531c1.5566406 -2.4797363 2.2667236 -4.984497 2.13031 -7.5145264c-0.13647461 -2.5300293 -1.1195068 -5.085205 -2.9490967 -7.6655273z" fill-rule="evenodd"/><path fill="#000000" d="m873.9933 1131.2378c3.0493164 4.300537 3.581665 8.947266 1.597168 13.940063c-4.501892 -0.018310547 -10.555298 -1.1047363 -18.160095 -3.2592773l-19.123596 -5.640625c9.518433 -5.081299 17.241882 -8.035156 23.170532 -8.861572c5.9439087 -0.83740234 10.115906 0.43640137 12.515991 3.8214111zm12.407898 -8.797974c-4.505127 -6.3536377 -12.516968 -8.3029785 -24.035522 -5.8477783c-10.566895 2.2390137 -21.824463 7.5946045 -33.772766 16.06665c-10.339905 7.331543 -16.877075 15.156372 -19.611511 23.474487c-2.4387207 7.5665283 -1.4350586 14.484985 3.0110474 20.755371c2.852539 4.0230713 7.3463135 7.0493164 13.481201 9.078613c7.197876 2.3596191 13.34729 1.730957 18.448303 -1.8859863c1.6083984 -1.1403809 2.7455444 -2.5235596 3.411438 -4.14917c0.68774414 -1.6273193 0.6873169 -2.9265137 -0.0012207031 -3.897583c-0.7672119 -1.0821533 -2.7184448 -1.220459 -5.8535767 -0.41503906c-3.119812 0.7944336 -6.598694 0.09240723 -10.436584 -2.1062012c-3.024414 -1.7331543 -5.215332 -3.5568848 -6.572754 -5.4714355c-2.1837158 -3.079712 -3.133484 -6.4644775 -2.8493042 -10.154419c0.29071045 -3.680664 1.7922974 -7.6501465 4.504944 -11.908447l23.749329 7.0512695c6.6796265 2.0183105 11.33844 3.1346436 13.97644 3.348877c5.991394 0.46325684 11.28479 -0.9343262 15.88031 -4.192871c6.571594 -4.659546 10.17395 -9.903198 10.807007 -15.730713c0.5078125 -4.737915 -0.87109375 -9.409912 -4.13678 -14.015625z" fill-rule="evenodd"/><path fill="#000000" d="m848.95374 1199.6512c-1.0230103 -1.442749 -2.7311401 -2.066162 -5.1243896 -1.8702393c-2.3779297 0.1850586 -4.7387085 1.1085205 -7.0824585 2.7703857c-2.3896484 1.6943359 -4.057556 3.6275635 -5.003723 5.7994385c-0.946167 2.171875 -0.90771484 3.979248 0.115234375 5.421997c1.0033569 1.414917 2.6895752 2.039917 5.058716 1.875c2.3757324 -0.15576172 4.758423 -1.0808105 7.1481323 -2.7751465c2.343689 -1.6618652 3.989685 -3.5933838 4.9381104 -5.7946777c0.97021484 -2.2028809 0.9536743 -4.0117188 -0.049621582 -5.426758z" fill-rule="evenodd"/><path fill="#000000" d="m921.4713 1203.0188c1.7705688 2.4970703 1.008606 5.8377686 -2.2858276 10.022217c-3.272583 4.1828613 -9.090759 9.23938 -17.454529 15.169922c-5.9282227 4.203369 -11.314209 6.8339844 -16.157898 7.891968c-5.5722656 1.1990967 -9.587952 0.064697266 -12.047058 -3.4035645c-2.1443481 -3.02417 -3.3236084 -6.732788 -3.5378418 -11.125488c11.48877 -8.14624 22.321167 -16.098022 32.497253 -23.855469c5.132019 -0.26171875 8.885742 -0.12976074 11.261108 0.39575195c3.3399658 0.7171631 5.914856 2.3520508 7.7247925 4.904663zm6.5717163 -29.739014c-1.1213379 -1.581543 -3.3327637 -1.8271484 -6.6343384 -0.73706055c-2.7632446 0.87524414 -5.776306 2.4697266 -9.039124 4.783203l-13.55072 10.546387c-8.035828 6.19812 -17.056335 12.90686 -27.061462 20.12622l-27.50409 19.501953l-27.661621 19.426147c-2.0219727 1.4337158 -3.4075317 2.9858398 -4.156555 4.656616c-0.74243164 1.6800537 -0.6906738 3.1165771 0.1552124 4.3095703c0.84594727 1.1931152 2.1811523 1.7126465 4.005615 1.5585938c1.8310547 -0.14477539 3.7575684 -0.93395996 5.779602 -2.3676758l33.00879 -23.28003c0.89019775 4.3720703 2.3189087 7.9454346 4.286255 10.719971c4.032898 5.687866 10.659973 7.826782 19.881042 6.416992c8.71582 -1.3435059 18.036804 -5.5343018 27.963135 -12.572632c10.891357 -7.7226562 18.908081 -14.970459 24.05011 -21.74353c6.494934 -8.566284 7.725891 -15.693359 3.6929321 -21.381104c-1.4360962 -2.0253906 -3.6227417 -3.6646729 -6.5599365 -4.9176025c-2.921814 -1.263794 -6.5843506 -2.1274414 -10.98761 -2.5910645c1.2341919 -0.79174805 2.612793 -1.623291 4.135742 -2.494751c1.1619263 -0.69873047 1.949707 -1.1948242 2.3632812 -1.4880371c1.8382568 -1.3033447 3.1230469 -2.7703857 3.8545532 -4.400879c0.75335693 -1.6322021 0.74645996 -2.9892578 -0.020812988 -4.071289z" fill-rule="evenodd"/><path fill="#000000" d="m960.2569 1219.7347c-0.8262329 -1.1652832 -2.1571045 -1.6949463 -3.9924316 -1.5887451c-1.8135376 0.10449219 -3.708313 0.8574219 -5.684387 2.258545c-1.470581 1.0427246 -3.6206665 2.6367188 -6.4502563 4.7819824c-2.823059 2.154663 -4.9697876 3.753296 -6.4403687 4.7960205c-4.7333984 3.3562012 -11.441589 7.806885 -20.124573 13.352173c-8.661133 5.543579 -15.358337 9.99353 -20.091736 13.349731c-1.3786621 0.97753906 -3.3843384 2.5317383 -6.017029 4.6625977c-2.6261597 2.1400146 -4.628601 3.6988525 -6.007202 4.6763916c-2.0679932 1.4663086 -3.4797974 3.0301514 -4.2353516 4.6916504c-0.7555542 1.661499 -0.7005615 3.1026611 0.16503906 4.3234863c0.84594727 1.1929932 2.1811523 1.7125244 4.005615 1.5585938c1.8309937 -0.14477539 3.7805176 -0.9503174 5.8485107 -2.416626c1.3786621 -0.97753906 3.3876343 -2.5270996 6.0268555 -4.6486816c2.6392822 -2.121582 4.6482544 -3.6711426 6.0269165 -4.6486816c2.159851 -1.5313721 4.447693 -3.0285645 6.8635254 -4.491333c2.84906 -1.7282715 5.189392 -3.2000732 7.020935 -4.4154053c9.524719 -4.585449 17.97229 -7.573242 25.342773 -8.963379c8.118652 -1.5037842 13.279663 -0.7019043 15.483032 2.4055176c1.5738525 2.2197266 -2.602417 6.848633 -12.528687 13.886963c-1.2867432 0.9123535 -3.5056763 2.4093018 -6.6567993 4.4907227c-3.1445923 2.0906982 -5.3602295 3.5922852 -6.6469727 4.5046387c-4.687439 3.3236084 -9.581787 7.0859375 -14.683105 11.286743l-14.27002 11.869385c-4.1033325 3.368164 -5.309082 6.2453613 -3.6172485 8.63147c0.84594727 1.1929932 2.1832886 1.7318115 4.012146 1.6164551c1.8200684 -0.095336914 3.7410889 -0.8597412 5.7631226 -2.293457c3.7683105 -2.671997 8.457092 -6.4483643 14.066284 -11.328857c5.6310425 -4.882324 10.353699 -8.675659 14.167969 -11.380249l6.4402466 -4.5039062l6.962219 -4.9366455c8.377014 -6.1065674 14.30249 -11.287842 17.776306 -15.543945c5.2402954 -6.342407 6.286621 -11.733154 3.138916 -16.172485c-3.4821167 -4.9108887 -12.022644 -6.0474854 -25.621643 -3.409668l7.9766235 -5.843506c5.797058 -4.485718 7.7907104 -8.004883 5.980774 -10.557495z" fill-rule="evenodd"/><path fill="#000000" d="m987.86 1291.9741c0.90496826 1.2762451 1.43573 2.755371 1.5923462 4.437134c0.15661621 1.6818848 -0.08392334 3.5827637 -0.72161865 5.7026367c-11.087769 6.861206 -19.319763 11.760132 -24.696045 14.696533c-4.9694824 3.0233154 -10.712769 5.0526123 -17.22992 6.0878906c-7.107788 1.0788574 -11.655212 0.21716309 -13.642151 -2.585083c-2.1640625 -3.052002 -2.1096802 -6.5303955 0.1630249 -10.435059c2.272705 -3.904663 6.7407837 -8.21936 13.404297 -12.944214c8.363831 -5.93042 16.171875 -9.527954 23.424133 -10.792725c8.066101 -1.3830566 13.968079 0.5612793 17.705933 5.8328857zm11.324341 -7.404175c-5.4297485 -7.657715 -13.624634 -10.936523 -24.584656 -9.836426c-10.631897 1.0760498 -22.151733 6.0129395 -34.55963 14.810791c-9.053162 6.4191895 -15.306519 13.215942 -18.76001 20.390015c-3.4316406 7.1724854 -3.3670654 13.269775 0.19372559 18.291626c1.8886108 2.6635742 4.7129517 4.211914 8.4730835 4.6451416c3.7666626 0.4423828 8.478943 -0.21643066 14.13678 -1.9766846l0 0c-11.685669 8.160645 -20.803894 13.562866 -27.354736 16.20642c-9.845886 3.937622 -16.72638 3.291748 -20.641418 -1.9376221c-0.21343994 -0.28125 -0.42034912 -0.56311035 -0.62072754 -0.8457031c-1.7702637 -2.496704 -3.032959 -5.050293 -3.788086 -7.6610107c-0.85595703 -2.8953857 -1.6380615 -4.8425293 -2.3463135 -5.8414307c-1.7115479 -2.4138184 -4.6123047 -2.1707764 -8.702332 0.7293701c-3.6304321 2.5740967 -4.7807007 6.0164795 -3.4508057 10.327026c0.9434204 3.0836182 2.7233276 6.470581 5.3398438 10.160645c4.4656982 6.298218 10.015869 9.596802 16.650452 9.895874c5.486145 0.23779297 12.394226 -1.6584473 20.724243 -5.6885986c6.5248413 -3.1672363 14.4418335 -7.9260254 23.750854 -14.276489l23.840088 -15.465576c2.3764648 -1.5181885 6.961792 -4.206665 13.7561035 -8.065186c5.881775 -3.2949219 10.454041 -6.099243 13.716858 -8.41272c5.3308105 -3.7797852 7.0126343 -7.203003 5.045532 -10.269531c1.5565796 -2.4796143 2.2666626 -4.984497 2.130249 -7.5145264c-0.13647461 -2.5299072 -1.1195068 -5.085083 -2.9490967 -7.6654053z" fill-rule="evenodd"/><path stroke="#000000" stroke-width="1.0" stroke-linejoin="round" stroke-linecap="butt" d="m153.71393 87.790276c-4.60347 -6.492424 -13.044647 -9.3881 -25.323532 -8.687027c7.6088715 -5.436821 10.449341 -9.514763 8.521393 -12.23381c-1.7312164 -2.441597 -4.917557 -2.016861 -9.559021 1.2742081c-1.5165176 1.0752945 -3.8175354 2.6512375 -6.903023 4.7278595c-3.078949 2.085846 -5.376663 3.6664352 -6.893181 4.7417374l-48.39071 34.311806c-4.6414604 3.2910614 -6.0965843 6.1573944 -4.365368 8.598984c1.9476166 2.7467957 5.242161 2.4746628 9.883625 -0.81640625l37.716057 -26.867943c7.1808167 -2.63163 13.140213 -3.771782 17.878181 -3.420456c5.085785 0.35487366 9.6194 2.4146423 13.600876 6.179306l-5.7018127 4.2305374c-2.2846985 1.7450638 -3.863617 2.927147 -4.7367554 3.546257c-4.5495605 3.2258987 -5.978401 6.0318985 -4.2865295 8.418007c1.8295822 2.5803223 5.685425 1.9310379 11.56752 -1.9478455c0.8468628 -0.55877686 2.4651184 -1.685379 4.854782 -3.3797836c5.652481 -4.0079346 9.486893 -7.560646 11.503235 -10.658134c2.0163422 -3.0974884 2.227768 -5.7699203 0.6342621 -8.017296z" fill-rule="evenodd"/><path stroke="#000000" stroke-width="1.0" stroke-linejoin="round" stroke-linecap="butt" d="m166.05403 132.51378c0.3147583 0.4439392 0.524353 1.1778259 0.62882996 2.2017365c0.11100769 1.0331116 0.09390259 2.3725586 -0.051345825 4.0182495c-2.835846 1.552124 -5.4737244 3.0750427 -7.913574 4.568802c-2.4180145 1.4921112 -4.6150208 2.9387665 -6.591095 4.33992c-6.0660706 4.301193 -14.873383 11.213196 -26.421951 20.736023c-3.898178 0.053878784 -6.6379547 -0.10903931 -8.21933 -0.48875427c-2.926506 -0.71847534 -5.3340683 -2.4094849 -7.222664 -5.073044c-2.2820587 -3.2184753 -2.1094437 -6.968292 0.51784515 -11.249481c2.6272888 -4.281189 7.7092514 -9.093735 15.245888 -14.437653c7.582588 -5.3764954 15.38166 -8.564667 23.397255 -9.564461c8.037445 -1.001442 13.580841 0.6481247 16.630142 4.948662zm11.817444 -9.192299c-4.5444336 -6.4091873 -12.408218 -9.123619 -23.591293 -8.1432495c-11.176544 0.9895859 -22.325378 5.42717 -33.446503 13.312691c-11.7645035 8.341705 -19.502487 15.93396 -23.213951 22.776764c-3.9610672 7.2699585 -3.6398773 14.151138 0.9635849 20.64357c0.963974 1.3595276 2.7767487 2.6175232 5.438347 3.7740173c2.6462708 1.1673431 6.108536 2.2355957 10.386803 3.2047424c-1.0377579 1.6531067 -2.056076 3.7719269 -3.0549545 6.3564453c-1.0383759 2.8209991 -1.3706741 4.4950867 -0.9968872 5.0222473c0.72789764 1.0265808 1.9646835 1.5046997 3.7103577 1.434372c1.7456741 -0.07034302 3.537613 -0.75720215 5.3758087 -2.0605927l0.9948044 -1.0806274c1.293663 -1.5843964 2.2852325 -2.7669525 2.9747086 -3.547699c5.0234146 -5.771698 8.447762 -9.513153 10.273048 -11.224335c2.9546661 -2.84552 7.291046 -6.2746735 13.00914 -10.287445c6.269562 -4.403778 11.455841 -7.9491425 15.558868 -10.636032c4.109558 -2.6776733 7.1358795 -4.496872 9.078888 -5.4576263c1.3585205 -0.12937927 2.6581726 -0.6339569 3.8989563 -1.5137482c3.6304626 -2.5742035 5.3946686 -6.66037 5.292633 -12.258484c-0.0566864 -4.4628296 -0.94081116 -7.901161 -2.652359 -10.31501z" fill-rule="evenodd"/><path stroke="#000000" stroke-width="1.0" stroke-linejoin="round" stroke-linecap="butt" d="m201.18759 149.19244c-0.8262634 -1.1652985 -2.1571045 -1.6949005 -3.9924622 -1.5887451c-1.8135223 0.104522705 -3.7082977 0.8573761 -5.6843567 2.2585144c-1.4705658 1.0427246 -3.6206512 2.6367188 -6.450241 4.782074c-2.8230438 2.1545563 -4.9698334 3.7532196 -6.440399 4.795929c-4.733368 3.3562317 -11.441574 7.806946 -20.124557 13.352188c-8.661133 5.5435944 -15.358368 9.993546 -20.091736 13.349777c-1.3786621 0.97753906 -3.3843536 2.5317078 -6.017044 4.6625214c-2.626175 2.1400452 -4.628563 3.6988678 -6.00721 4.676407c-2.0679855 1.4663239 -3.4797592 3.0302277 -4.2353287 4.6917267c-0.7555771 1.661499 -0.7005615 3.1026459 0.16504669 4.323456c0.84593964 1.193039 2.1811218 1.7125549 4.0056076 1.5585632c1.8310089 -0.14476013 3.7805328 -0.9502716 5.8485107 -2.4165955c1.3786469 -0.97753906 3.3876038 -2.5270996 6.0268707 -4.648651c2.639267 -2.1215668 4.648239 -3.671112 6.026886 -4.6486664c2.1598816 -1.5314789 4.4477234 -3.0286102 6.8635254 -4.491379c2.84906 -1.7282867 5.189377 -3.2000885 7.020981 -4.4154053c9.524673 -4.585434 17.97226 -7.573227 25.342728 -8.963425c8.118668 -1.5037384 13.279678 -0.7018738 15.4830475 2.4056091c1.573822 2.219635 -2.6024017 6.8486023 -12.528702 13.886932c-1.2867432 0.9123688 -3.5056915 2.409256 -6.6567993 4.4907227c-3.144577 2.090683 -5.3602295 3.5922394 -6.6469727 4.504608c-4.6874084 3.3236542 -9.581787 7.085907 -14.683105 11.286774l-14.269989 11.869415c-4.1033783 3.368164 -5.309128 6.2453003 -3.6172485 8.631409c0.845932 1.1930542 2.1832886 1.7318726 4.0121307 1.6164856c1.8200378 -0.09529114 3.7411041 -0.859787 5.7631226 -2.293518c3.7683258 -2.6719513 8.457062 -6.4482574 14.066269 -11.328873c5.6310425 -4.882248 10.353729 -8.675613 14.167999 -11.380157l6.4402466 -4.503952l6.9621887 -4.9365997c8.377045 -6.106598 14.30249 -11.287903 17.776337 -15.543915c5.240265 -6.3424225 6.2865753 -11.733261 3.138916 -16.172531c-3.4821167 -4.9109344 -12.022659 -6.047516 -25.621643 -3.4097443l7.976593 -5.8434906c5.797104 -4.485733 7.790695 -8.004883 5.980789 -10.557465z" fill-rule="evenodd"/><path stroke="#000000" stroke-width="1.0" stroke-linejoin="round" stroke-linecap="butt" d="m269.266 170.40501c-0.84591675 -1.1930542 -2.1844177 -1.7172089 -4.015442 -1.5724487c-1.8244629 0.1539917 -3.770691 0.9641571 -5.8386536 2.430481c-2.0679932 1.4663086 -4.4609985 3.2534027 -7.179001 5.361328c-2.7114563 2.1171265 -5.101166 3.9088898 -7.1691437 5.3751984c-6.893265 4.887726 -14.881744 10.454712 -23.965424 16.701004c-9.061813 6.2446594 -17.085297 11.843445 -24.070465 16.79634c-3.81427 2.704544 -9.642792 6.594055 -17.48552 11.668594c-7.820877 5.072876 -13.638443 8.961624 -17.452713 11.666168c-6.249893 4.431534 -8.381363 8.048447 -6.394394 10.850723c0.845932 1.1930542 2.1811218 1.7125549 4.0056 1.5585785c1.8310242 -0.14477539 3.7805328 -0.95028687 5.8485107 -2.4165955c6.7554016 -4.789978 13.802811 -9.557678 21.142258 -14.303131c6.2143707 0.68040466 10.949036 1.0757751 14.203995 1.1860962l-11.389603 19.145813c-4.2761536 7.4099884 -8.223465 13.481888 -11.841934 18.215714c-2.0752106 2.7222595 -2.5718079 4.846405 -1.4897919 6.372406c0.8065796 1.1375427 2.1844482 1.6685486 4.13356 1.592926c1.9556732 -0.066345215 3.8526 -0.7512207 5.690811 -2.0546265c2.895172 -2.052826 7.6400757 -8.606873 14.234741 -19.66217l14.0399475 -23.589264c11.123718 -0.38232422 21.204224 -1.2132416 30.241516 -2.4927826c2.0870361 -0.27067566 3.911789 -0.95996094 5.4742584 -2.0678406c1.8841553 -1.3359833 3.227066 -2.9483185 4.0286865 -4.8370667c0.808197 -1.8794708 0.82865906 -3.36026 0.061416626 -4.442337c-0.74757385 -1.0543213 -2.227188 -1.4853363 -4.4388733 -1.2930603l-22.13977 1.939148c-8.177216 0.54460144 -15.99324 0.62461853 -23.44809 0.24006653c7.956848 -5.7252502 15.982544 -11.353394 24.077087 -16.884415l22.402878 -15.447144c2.113922 -1.4989014 4.5539856 -3.3332672 7.32016 -5.503113c2.7814636 -2.1807098 5.229187 -4.020508 7.343109 -5.519409c2.0679932 -1.4663239 3.4732056 -3.039505 4.2156677 -4.7194824c0.7489929 -1.6707611 0.7005615 -3.1026459 -0.14538574 -4.2957z" fill-rule="evenodd"/><path stroke="#000000" stroke-width="1.0" stroke-linejoin="round" stroke-linecap="butt" d="m261.30978 267.7329c2.6951904 3.801117 2.3579712 8.584961 -1.0116882 14.351501c-3.1200256 5.339386 -8.103714 10.4366455 -14.951019 15.291779c-6.9851685 4.952881 -13.736267 7.800995 -20.253265 8.544312c-6.5169983 0.74334717 -11.201782 -0.8965454 -14.054352 -4.9196167c-1.5148163 -2.1364136 -2.4455109 -4.3742676 -2.7920837 -6.7135925c-0.14906311 -3.5217285 -0.19024658 -6.3069153 -0.123535156 -8.35556l11.275452 -8.057495l10.7239685 -7.666443l11.984375 -8.372528c5.499222 0.35357666 9.190445 0.73831177 11.073669 1.1541748c3.8058167 0.8871765 6.5152893 2.4683533 8.128479 4.743469zm38.210907 -50.421875c-1.1410217 -1.6092377 -3.4377747 -1.8778076 -6.890259 -0.80574036c-2.6976624 0.8704376 -5.4251404 2.2832031 -8.182434 4.2382965c-3.4006958 2.4112701 -9.790619 6.9212494 -19.16983 13.529953c-9.363861 6.597824 -15.72316 11.08609 -19.07788 13.464783c-4.871231 3.4539795 -12.117966 8.703537 -21.740204 15.748611c-9.600357 7.0434875 -16.836166 12.292236 -21.707413 15.746216c-1.1948242 0.8471985 -2.990326 2.0647278 -5.386505 3.6525574c-2.3896027 1.5971069 -4.1818237 2.8192444 -5.376663 3.6664429c-1.8381958 1.3033752 -3.1033478 2.7494507 -3.795456 4.338135c-0.70085144 1.6088257 -0.67749023 2.9403687 0.07006836 3.99469c0.90496826 1.2762756 2.7751312 1.5763245 5.610504 0.90011597c-0.29818726 5.4232483 1.0576935 10.257416 4.067642 14.502441c4.308365 6.0762634 11.561935 8.563171 21.760712 7.4607544c10.198776 -1.102417 20.537048 -5.368286 31.014801 -12.797607c10.385864 -7.3641663 17.90091 -15.31955 22.545166 -23.86612c4.946411 -9.09436 5.304779 -16.624176 1.0751038 -22.589447c-1.3574219 -1.9144287 -3.4916077 -3.4796143 -6.4025574 -4.695572c-2.889038 -1.2175598 -6.5450134 -2.0720367 -10.967926 -2.5633698l17.63684 -12.380463l15.184784 -10.579254c0.6433716 -0.45619202 1.634613 -1.0548096 2.9737854 -1.7958679c1.3391418 -0.7410736 2.3304138 -1.3396912 2.9737854 -1.7958832c3.9980774 -2.8348694 5.2593994 -5.2927704 3.7839355 -7.3736725z" fill-rule="evenodd"/><path stroke="#000000" stroke-width="1.0" stroke-linejoin="round" stroke-linecap="butt" d="m295.52127 315.39822c3.0493164 4.300537 3.5816956 8.947235 1.5971375 13.9401245c-4.501892 -0.018371582 -10.555237 -1.1047974 -18.160095 -3.2592468l-19.123535 -5.640686c9.518372 -5.081299 17.241882 -8.035187 23.170471 -8.861633c5.9439087 -0.8373108 10.115936 0.43649292 12.516022 3.8214417zm12.407867 -8.797913c-4.5050964 -6.3536987 -12.516907 -8.302948 -24.035492 -5.8477783c-10.566864 2.2389832 -21.824463 7.594513 -33.772797 16.066559c-10.33989 7.331604 -16.877045 15.156464 -19.61148 23.47461c-2.4387207 7.566437 -1.4350433 14.484894 3.011032 20.75534c2.8525696 4.0230713 7.3463135 7.0492554 13.481216 9.078552c7.1978607 2.3596191 13.34729 1.7309875 18.448303 -1.8859253c1.608429 -1.1404724 2.745575 -2.523529 3.411438 -4.149231c0.68774414 -1.6272888 0.6873474 -2.9264832 -0.0012207031 -3.897583c-0.76724243 -1.0820618 -2.7184143 -1.2204285 -5.853546 -0.41503906c-3.119812 0.7944946 -6.598694 0.092437744 -10.436615 -2.1062317c-3.024414 -1.7330933 -5.215332 -3.5568848 -6.572769 -5.4713135c-2.1836853 -3.0797424 -3.1334534 -6.464569 -2.8493195 -10.1545105c0.29071045 -3.680664 1.7923584 -7.6501465 4.504944 -11.908417l23.74939 7.0513306c6.679596 2.0183105 11.338409 3.134552 13.97644 3.3487854c5.991333 0.46328735 11.28479 -0.9343262 15.88028 -4.19281c6.571594 -4.6596375 10.17392 -9.903198 10.807007 -15.730713c0.507843 -4.7380066 -0.87109375 -9.409882 -4.1368103 -14.015625z" fill-rule="evenodd"/><path stroke="#000000" stroke-width="1.0" stroke-linejoin="round" stroke-linecap="butt" d="m346.9117 360.26395c-4.6034546 -6.4924316 -13.044647 -9.388092 -25.323517 -8.687012c7.608856 -5.4368286 10.449341 -9.5147705 8.521393 -12.233826c-1.7312317 -2.4415894 -4.917572 -2.0168457 -9.559021 1.2742004c-1.5165405 1.0753174 -3.8175354 2.6512756 -6.903015 4.7278748c-3.078949 2.0858765 -5.3766785 3.6664429 -6.8931885 4.7417297l-48.390717 34.3118c-4.641464 3.2910767 -6.096588 6.1574097 -4.3653717 8.598999c1.9476166 2.7467957 5.2421722 2.4746704 9.883621 -0.81640625l37.716064 -26.86795c7.1808167 -2.6316223 13.140198 -3.7717896 17.878174 -3.4204407c5.085785 0.3548584 9.619415 2.4146423 13.600891 6.179291l-5.7018127 4.23053c-2.2846985 1.7450867 -3.863617 2.9271545 -4.7367554 3.5462646c-4.5495605 3.225891 -5.978424 6.031891 -4.2865295 8.417999c1.8295593 2.5803223 5.6853943 1.9310608 11.567505 -1.9478455c0.8468628 -0.55877686 2.4651184 -1.6853638 4.8547974 -3.3797607c5.652466 -4.0079346 9.486877 -7.560669 11.503235 -10.658142c2.016327 -3.0975037 2.2277527 -5.769928 0.6342468 -8.017303z" fill-rule="evenodd"/><path stroke="#000000" stroke-width="1.0" stroke-linejoin="round" stroke-linecap="butt" d="m390.88754 372.17392c-0.8262634 -1.1652832 -2.1603394 -1.6994934 -4.002289 -1.6026001c-1.8266296 0.08602905 -3.7049866 0.813324 -5.6351013 2.1818848c-1.7463074 1.2382202 -4.545227 3.3131714 -8.39679 6.224823c-3.8296814 2.9100647 -6.9164124 5.195984 -9.260101 6.8578186l-5.025116 -9.570709c-0.8262634 -1.1653137 -2.1713257 -1.6500549 -4.035187 -1.4541931c-1.8638611 0.1958313 -3.8068237 1.0105896 -5.8288574 2.444336c-3.9980774 2.8348694 -5.3974 5.682495 -4.1979675 8.542847c2.2878723 4.590271 4.080963 7.9469604 5.3792114 10.070129l-39.666473 29.376648c-1.7462769 1.2382202 -4.395233 3.053955 -7.9468384 5.4471436c-3.5516052 2.393219 -6.2005615 4.208954 -7.9468384 5.447174c-1.7922668 1.2707825 -2.9972534 2.7367554 -3.6150208 4.3977966c-0.61120605 1.6703491 -0.52334595 3.0603943 0.2635498 4.1701965c2.1443481 3.0242615 8.209259 0.9128723 18.194733 -6.334198l3.4860535 -2.5343628l3.00354 -2.1921997l40.178497 -29.677185c2.912384 2.6464539 4.5947876 4.2887573 5.0472717 4.9269104c0.41311646 0.5826416 0.8524475 1.2996216 1.3179321 2.1509094c0.4720459 0.86053467 0.91464233 1.5821228 1.3277588 2.164795c0.84594727 1.1930542 2.1888123 1.7071533 4.028595 1.5422668c1.8616638 -0.16644287 3.8034973 -0.96658325 5.825531 -2.400299c3.4006653 -2.4112854 4.960541 -4.7890015 4.679596 -7.133148c-0.16998291 -1.2137146 -1.2779846 -3.2633362 -3.323944 -6.148834c-0.35412598 -0.49942017 -2.1185303 -2.2086792 -5.293274 -5.1277466l4.3033447 -2.9887695l4.0570984 -2.751648c2.389679 -1.694397 4.4051514 -3.1860352 6.0464783 -4.4749146c6.4602966 -5.2061462 8.805176 -9.05777 7.034607 -11.554871z" fill-rule="evenodd"/><path stroke="#000000" stroke-width="1.0" stroke-linejoin="round" stroke-linecap="butt" d="m403.52298 472.538c1.7705688 2.4970703 1.0086365 5.8378296 -2.285797 10.022217c-3.2725525 4.1828003 -9.090729 9.23941 -17.45456 15.16983c-5.9282227 4.2034607 -11.314178 6.8341064 -16.157898 7.8919983c-5.572235 1.1991882 -9.587891 0.064697266 -12.047028 -3.403473c-2.1443481 -3.0242615 -3.323639 -6.732788 -3.5378723 -11.12558c11.48877 -8.14621 22.321198 -16.098022 32.497253 -23.855469c5.1320496 -0.2616577 8.885742 -0.1296997 11.261108 0.3958435c3.3399658 0.7171631 5.9148865 2.3520508 7.7247925 4.9046326zm6.571747 -29.739075c-1.1213379 -1.5814819 -3.3327942 -1.8271484 -6.6343384 -0.73703c-2.7632751 0.87527466 -5.7763367 2.469696 -9.039154 4.783203l-13.550659 10.546356c-8.035858 6.1982117 -17.056335 12.906952 -27.061493 20.126282l-27.50412 19.501984l-27.66159 19.426025c-2.0220032 1.4337769 -3.4075317 2.986023 -4.156555 4.6567383c-0.74243164 1.6799927 -0.69070435 3.116516 0.1552124 4.3095703c0.84594727 1.1930542 2.1811523 1.7125854 4.005615 1.5585938c1.8310242 -0.14477539 3.7575378 -0.934021 5.7795715 -2.3677368l33.00882 -23.28006c0.89019775 4.372162 2.3189392 7.9454956 4.2862244 10.720062c4.0329285 5.687805 10.659973 7.826721 19.881104 6.41687c8.715759 -1.3433838 18.036804 -5.5342407 27.963074 -12.572571c10.891357 -7.722595 18.908081 -14.970459 24.05014 -21.743591c6.4949036 -8.566223 7.725891 -15.693268 3.6929321 -21.381073c-1.4361267 -2.0254211 -3.6227722 -3.6645813 -6.5599365 -4.9175415c-2.9218445 -1.263794 -6.584381 -2.1275024 -10.98761 -2.5911255c1.2341919 -0.7917175 2.6127625 -1.6232605 4.135742 -2.4946594c1.1619263 -0.6987915 1.949707 -1.1948242 2.3633118 -1.4880981c1.8381958 -1.3034058 3.1230469 -2.7703552 3.8545227 -4.400879c0.75338745 -1.6321411 0.74645996 -2.9892578 -0.020812988 -4.0713196z" fill-rule="evenodd"/><path stroke="#000000" stroke-width="1.0" stroke-linejoin="round" stroke-linecap="butt" d="m479.6878 466.43985c-1.927948 -2.7190552 -5.1896667 -2.4493103 -9.785187 0.80914307c-7.260895 5.148407 -15.6203 10.971466 -25.078186 17.469177c-9.442566 6.486847 -17.794281 12.304474 -25.055176 17.45288c-5.5605774 3.942749 -14.024933 9.715149 -25.393127 17.31723c-11.352844 7.5911865 -19.80954 13.358154 -25.370117 17.300903c-4.6874084 3.3236694 -6.0671387 6.3449707 -4.1391907 9.064026c1.7312012 2.4415894 4.99292 2.171875 9.785156 -0.80914307c7.188507 -4.763489 12.597992 -8.432373 16.228455 -11.006531l34.70215 -23.667725c7.2609253 -5.148407 15.61264 -10.966034 25.055206 -17.45288c9.457886 -6.497711 17.817291 -12.32077 25.078186 -17.469147c4.59552 -3.258484 5.919464 -6.261139 3.9718323 -9.007935z" fill-rule="evenodd"/><path stroke="#000000" stroke-width="1.0" stroke-linejoin="round" stroke-linecap="butt" d="m454.65558 539.53876c0.3147583 0.4439087 0.52438354 1.1778564 0.6288452 2.2017212c0.11099243 1.0331421 0.09390259 2.3725586 -0.051361084 4.0182495c-2.835846 1.552124 -5.473694 3.0750732 -7.913574 4.5688477c-2.4179993 1.4921265 -4.6150208 2.9387207 -6.591095 4.339905c-6.0660706 4.3011475 -14.873383 11.213196 -26.421936 20.736023c-3.8981934 0.053894043 -6.63797 -0.109069824 -8.21933 -0.48876953c-2.9265137 -0.7184448 -5.334076 -2.4094849 -7.2226562 -5.073059c-2.282074 -3.2184448 -2.1094666 -6.9682617 0.51782227 -11.249451c2.6272888 -4.281189 7.709259 -9.09375 15.24588 -14.437683c7.582611 -5.376465 15.381683 -8.564636 23.397278 -9.564453c8.037445 -1.0014038 13.580841 0.6481323 16.630127 4.9486694zm11.817444 -9.192322c-4.5444336 -6.4091797 -12.408203 -9.123596 -23.591278 -8.1432495c-11.176544 0.989624 -22.325378 5.427185 -33.446503 13.312744c-11.764496 8.341675 -19.502502 15.93396 -23.213959 22.776733c-3.9610596 7.2699585 -3.639862 14.151123 0.9635925 20.643555c0.96395874 1.3595581 2.7767334 2.6175537 5.438324 3.7740479c2.6462708 1.1673584 6.108551 2.2355957 10.38681 3.204712c-1.0377502 1.6531372 -2.0560608 3.7719116 -3.0549316 6.3564453c-1.0383911 2.821045 -1.370697 4.495117 -0.9969177 5.022278c0.7279053 1.0265503 1.9646912 1.5046997 3.7103577 1.4343262c1.745697 -0.0703125 3.5376282 -0.7571411 5.375824 -2.0605469l0.994812 -1.0806274c1.2936401 -1.5844116 2.2852173 -2.7669678 2.974701 -3.5477295c5.023407 -5.7716675 8.447754 -9.513123 10.273071 -11.224304c2.9546509 -2.84552 7.2910156 -6.274658 13.009125 -10.287476c6.269562 -4.4037476 11.455841 -7.9490967 15.558868 -10.635986c4.109558 -2.6776733 7.1358643 -4.496887 9.078888 -5.4576416c1.3585205 -0.12939453 2.6581726 -0.63397217 3.8989563 -1.513794c3.6304626 -2.5741577 5.3946533 -6.6603394 5.292633 -12.258484c-0.05670166 -4.4627686 -0.9408264 -7.901123 -2.6523743 -10.315002z" fill-rule="evenodd"/><path stroke="#000000" stroke-width="1.0" stroke-linejoin="round" stroke-linecap="butt" d="m497.61673 571.4937c-3.6985168 -5.2161865 -12.537842 -5.994934 -26.518005 -2.3364258c-12.582153 3.2927246 -23.537659 8.246399 -32.866547 14.861145c-9.788422 6.9405518 -16.253265 14.526489 -19.394531 22.757874c-3.0032349 7.841614 -2.4884033 14.606323 1.5445557 20.29419c1.750885 2.4692993 5.3329163 4.599243 10.746063 6.3897705c6.1545715 2.0570679 10.90921 1.8962402 14.263947 -0.4824829c1.7462769 -1.2382202 3.0278625 -2.7097778 3.844696 -4.414734c0.83218384 -1.7158203 0.88430786 -3.0870361 0.15640259 -4.1135864c-0.2557373 -0.36071777 -1.0463562 -0.6965332 -2.3718262 -1.0075684l-7.6968994 -1.7973022c-2.808319 -0.84399414 -4.8026733 -2.0983276 -5.9830627 -3.7630615c-2.5968018 -3.6623535 -3.090088 -7.815613 -1.4797974 -12.459778c1.7220459 -4.9735107 5.616089 -9.610901 11.682159 -13.912109c5.6065063 -3.9753418 13.142151 -7.4213867 22.606873 -10.338257c10.331116 -3.1558838 16.5 -3.3187866 18.506622 -0.48876953c2.6361694 3.7178955 3.4546814 7.161072 2.4554749 10.329529c-0.38778687 1.1088257 -0.7777405 2.2470703 -1.1699524 3.4146118c-0.3703003 1.1659546 -0.27020264 2.151245 0.3003235 2.9558716c0.7279053 1.0265503 2.0117493 1.4087524 3.851593 1.1465454c1.8551636 -0.27301025 3.6558838 -1.0286865 5.402191 -2.2669067c3.906189 -2.7697144 5.709961 -7.2383423 5.4113464 -13.405884c-0.2664795 -4.856079 -1.363678 -8.643616 -3.291626 -11.362671z" fill-rule="evenodd"/><path stroke="#000000" stroke-width="1.0" stroke-linejoin="round" stroke-linecap="butt" d="m515.04144 624.99524c3.0492554 4.300537 3.581665 8.947266 1.5971069 13.9401245c-4.501892 -0.018371582 -10.555237 -1.1047974 -18.160095 -3.2592773l-19.123535 -5.640625c9.518372 -5.081299 17.241882 -8.035217 23.170471 -8.861633c5.9439087 -0.8373413 10.115906 0.4364624 12.516052 3.8214111zm12.407837 -8.797913c-4.505066 -6.3536987 -12.516907 -8.3029785 -24.035492 -5.8477783c-10.566864 2.2390137 -21.824463 7.5945435 -33.772797 16.06659c-10.339905 7.331543 -16.877045 15.156433 -19.61148 23.474548c-2.4387207 7.5664673 -1.4350281 14.484924 3.0110474 20.755371c2.8525696 4.0230713 7.346283 7.0492554 13.481201 9.078552c7.1978455 2.3596191 13.34729 1.7310181 18.448303 -1.8859253c1.608429 -1.1404419 2.745575 -2.5235596 3.411438 -4.149231c0.68774414 -1.6273193 0.6873474 -2.9265137 -0.0012207031 -3.897583c-0.76724243 -1.0820923 -2.7184143 -1.220398 -5.853546 -0.41503906c-3.119812 0.7944946 -6.598694 0.09240723 -10.436615 -2.1062012c-3.024414 -1.7331543 -5.215332 -3.5568848 -6.572754 -5.4713135c-2.1837158 -3.079773 -3.133484 -6.4645996 -2.8493347 -10.154541c0.29071045 -3.680664 1.7923584 -7.6501465 4.504944 -11.908447l23.74939 7.0513306c6.679596 2.0183105 11.338409 3.1345825 13.97644 3.348816c5.991333 0.46325684 11.28479 -0.9343262 15.88031 -4.19281c6.571533 -4.659607 10.173889 -9.903198 10.807007 -15.730713c0.5078125 -4.737976 -0.8711548 -9.409851 -4.136841 -14.015625z" fill-rule="evenodd"/><path stroke="#000000" stroke-width="1.0" stroke-linejoin="round" stroke-linecap="butt" d="m589.5113 622.35046c-0.82629395 -1.1653442 -2.1604004 -1.6995239 -4.0023193 -1.6026611c-1.8265991 0.08605957 -3.705017 0.8133545 -5.635132 2.1819458c-2.25177 1.5966187 -4.335144 3.2684326 -6.250183 5.015442c-1.8931274 1.7453613 -4.0115356 3.4489746 -6.3552246 5.11084c-1.9760742 1.401123 -5.882202 4.0248413 -11.718323 7.871155l-50.75403 35.799866l-10.290558 7.109009c-5.619568 3.859497 -9.082489 6.0856323 -10.388763 6.6782837c-1.5556946 0.72784424 -2.655243 1.3198242 -3.2986145 1.776001c-1.8381958 1.3034058 -3.0957336 2.8413696 -3.7726135 4.6138306c-0.6768799 1.7724609 -0.61203 3.227478 0.19454956 4.3650513c1.1607056 1.6369629 3.4410706 1.8338013 6.8411255 0.59039307c3.846405 -1.3930664 14.524048 -8.297058 32.03293 -20.711853c9.379456 -2.9396973 15.926453 -4.66333 19.641174 -5.1708374c7.252075 -0.9727173 12.12738 0.3027954 14.6258545 3.826416c1.8492432 2.6080933 -1.5458984 6.9750977 -10.185486 13.101013c-1.1948242 0.847229 -3.036255 2.097351 -5.524353 3.7503662c-2.4815063 1.6622314 -4.319702 2.9169922 -5.5145264 3.7641602c-4.2738037 3.0303955 -9.56543 7.157715 -15.874817 12.381897c-6.565399 5.44751 -11.5060425 9.826294 -14.821869 13.136353c-3.059784 3.086853 -3.8912964 5.6152344 -2.4945068 7.585144c0.8262329 1.1653442 2.170166 1.7133789 4.0317993 1.6442261c1.846283 -0.058288574 3.7115173 -0.7553711 5.5956726 -2.0913696c0.55145264 -0.39105225 1.1784668 -0.91900635 1.881012 -1.5839233c3.6965332 -3.454956 8.0954895 -7.282837 13.196808 -11.483704l13.747803 -10.99884l12.930054 -9.668457c8.15387 -6.0317383 13.544312 -10.89624 16.171265 -14.593506c3.7434692 -5.23938 3.9822998 -10.161926 0.71661377 -14.767639c-2.0656738 -2.913269 -5.27594 -4.7786865 -9.630859 -5.5961914c-4.333008 -0.81915283 -9.833679 -0.5740967 -16.501892 0.7351074l6.03656 -4.3428345c5.0354004 -3.6120605 10.116638 -7.110718 15.243774 -10.495972c5.376587 -3.5204468 10.477539 -6.991394 15.302795 -10.412781c3.5845337 -2.541626 7.448181 -5.614746 11.591064 -9.219421c3.7686768 -3.2559204 4.8463745 -6.0214233 3.2332153 -8.296509z" fill-rule="evenodd"/><path stroke="#000000" stroke-width="1.0" stroke-linejoin="round" stroke-linecap="butt" d="m580.7155 722.1457c0.020324707 0.028625488 0.04046631 0.057373047 0.060546875 0.086364746c4.3410645 6.2197876 -2.5183716 15.440674 -20.57843 27.662537c-6.669922 4.520874 -12.771118 6.970703 -18.303528 7.3494873c-4.9680786 0.39556885 -8.475098 -0.84942627 -10.521057 -3.7349854c-1.7509155 -2.4692993 -1.736084 -5.7111816 0.04449463 -9.725586c2.168213 -4.831238 6.5840454 -9.609253 13.247559 -14.334045c6.663513 -4.7247925 13.231079 -8.026489 19.702698 -9.905151c8.035889 -2.3029785 13.485107 -1.4359131 16.347717 2.6013794zm14.437439 -9.294678c-4.918213 -6.9363403 -13.418884 -9.039368 -25.501953 -6.30896c-10.265015 2.2750854 -20.531433 7.1779785 -30.799255 14.708618c-10.569824 7.786499 -17.697693 15.800903 -21.383667 24.043213c-3.3179932 7.397705 -3.324463 13.427185 -0.01940918 18.08844c4.15094 5.854248 11.5755005 7.6570435 22.273682 5.408386c9.437927 -1.9805908 19.287476 -6.5462036 29.548523 -13.696777c9.617676 -6.694397 17.02063 -13.590454 22.208801 -20.68811c6.383423 -8.820801 7.60791 -16.005737 3.6732788 -21.55481z" fill-rule="evenodd"/><path stroke="#000000" stroke-width="1.0" stroke-linejoin="round" stroke-linecap="butt" d="m658.0129 717.938c-1.9279175 -2.7189941 -5.1896973 -2.4492798 -9.785156 0.80914307c-7.2609253 5.1484375 -15.6203 10.971497 -25.078186 17.469177c-9.442566 6.4868774 -17.794312 12.304504 -25.055237 17.45288c-5.560547 3.942749 -14.024902 9.715149 -25.393066 17.3172c-11.352844 7.5911865 -19.80957 13.358215 -25.370117 17.300964c-4.687439 3.3236084 -6.0671997 6.3449707 -4.139221 9.064026c1.7312012 2.4415894 4.99292 2.171875 9.785156 -0.80914307c7.1885376 -4.763489 12.598022 -8.432373 16.228455 -11.006592l34.70215 -23.667664c7.2609253 -5.1484375 15.612671 -10.966064 25.055237 -17.45288c9.457825 -6.4977417 17.81726 -12.320801 25.078125 -17.469177c4.59552 -3.258484 5.9194946 -6.2611084 3.9718628 -9.007935z" fill-rule="evenodd"/><path stroke="#000000" stroke-width="1.0" stroke-linejoin="round" stroke-linecap="butt" d="m631.9372 791.02625c1.7312622 2.4416504 2.2821045 5.1989746 1.6526489 8.272034c-0.61413574 3.0621948 -2.4085693 6.4401855 -5.383362 10.13385l-8.193054 5.684265l-8.025696 5.628174l-11.836792 8.580627c-1.1026611 0.19805908 -2.1002197 0.3008423 -2.9927368 0.30822754c-4.501892 -0.018371582 -7.5008545 -0.20599365 -8.996948 -0.5628052c-2.5656128 -0.59906006 -4.6746826 -2.0639648 -6.3272095 -4.3945312c-2.4197998 -3.4127197 -2.3944092 -7.905884 0.076049805 -13.479614c2.4770508 -5.564453 6.6796265 -10.448425 12.607849 -14.651855c9.19104 -6.516968 16.895203 -10.228516 23.11261 -11.134705c6.232727 -0.9169922 11.001587 0.95513916 14.306641 5.616333zm62.400574 -19.666565c-1.5344849 -2.1641235 -4.4746094 -1.9765015 -8.820374 0.5628052c-7.083252 4.2302246 -20.436096 13.010254 -40.058594 26.340027l1.9824219 -7.284668c0.41503906 -2.9210205 -0.51849365 -5.9907227 -2.8005981 -9.2092285c-4.446045 -6.270447 -11.761963 -8.747864 -21.947754 -7.432312c-10.179199 1.3247681 -21.403809 6.3372803 -33.67383 15.037415c-10.156067 7.201233 -17.096802 15.04126 -20.822266 23.52008c-3.6663208 8.270081 -3.4633179 15.276733 0.6090088 21.02008c1.6525269 2.3305664 3.8598633 4.128845 6.6220093 5.3946533c2.7687378 1.2751465 6.0791016 2.0480347 9.931152 2.3186646c-3.5654297 3.7372437 -4.7382812 6.4660034 -3.5185547 8.186218c0.7279053 1.0265503 1.9646606 1.5046997 3.7103271 1.4343872c1.7457275 -0.070373535 3.5376587 -0.75720215 5.3758545 -2.060608c0.41357422 -0.29327393 0.9224243 -0.69573975 1.5264282 -1.2073975c7.2025146 -6.399536 18.455261 -15.024658 33.7583 -25.875427c6.755432 -4.789978 13.628845 -9.413452 20.6203 -13.870483c22.6156 -14.367981 37.11725 -23.81659 43.505005 -28.345886c4.4576416 -3.1607056 5.791382 -6.003479 4.0011597 -8.52832z" fill-rule="evenodd"/><path stroke="#000000" stroke-width="1.0" stroke-linejoin="round" stroke-linecap="butt" d="m666.8966 839.1619c3.0493164 4.300537 3.581665 8.947266 1.5971069 13.940186c-4.501892 -0.018371582 -10.555237 -1.1047974 -18.160095 -3.2592773l-19.123535 -5.640686c9.518372 -5.081299 17.241882 -8.035156 23.170471 -8.861633c5.9439087 -0.8372803 10.115967 0.43652344 12.516052 3.8214111zm12.407837 -8.797852c-4.505066 -6.3536987 -12.516907 -8.3029785 -24.035461 -5.8478394c-10.566895 2.2390137 -21.824463 7.5945435 -33.772827 16.06659c-10.339905 7.331604 -16.877014 15.156494 -19.61145 23.47461c-2.4387207 7.5664673 -1.4350586 14.484863 3.0109863 20.755371c2.8526 4.0230713 7.3463135 7.0492554 13.481262 9.078491c7.197815 2.3596802 13.34729 1.7310181 18.448303 -1.8858643c1.6083984 -1.1405029 2.7455444 -2.5235596 3.411438 -4.149231c0.68774414 -1.6273193 0.6873169 -2.9265137 -0.0012207031 -3.897583c-0.76727295 -1.0820923 -2.7184448 -1.220459 -5.8535767 -0.41503906c-3.119812 0.7944946 -6.598694 0.09240723 -10.436584 -2.1062622c-3.024414 -1.7330933 -5.215332 -3.5568848 -6.572815 -5.4713135c-2.1836548 -3.079712 -3.1334229 -6.4645996 -2.8493042 -10.15448c0.29071045 -3.680725 1.7923584 -7.6501465 4.504944 -11.908447l23.74939 7.0513306c6.6796265 2.0183105 11.33844 3.1345825 13.97644 3.348816c5.991333 0.46325684 11.28479 -0.9343262 15.88031 -4.19281c6.571594 -4.659668 10.173889 -9.903198 10.807007 -15.730713c0.5078125 -4.738037 -0.87109375 -9.409912 -4.136841 -14.015625z" fill-rule="evenodd"/><path stroke="#000000" stroke-width="1.0" stroke-linejoin="round" stroke-linecap="butt" d="m718.28705 884.0277c-4.6034546 -6.4924316 -13.044678 -9.388123 -25.323547 -8.687073c7.6088867 -5.4367676 10.449341 -9.514709 8.521362 -12.233765c-1.7312012 -2.4415894 -4.9175415 -2.0169067 -9.55896 1.2741699c-1.5165405 1.0753174 -3.817566 2.651245 -6.903076 4.7279053c-3.0789185 2.0858154 -5.376648 3.6663818 -6.8931885 4.741699l-48.390686 34.31183c-4.6414795 3.2910767 -6.0965576 6.1574097 -4.3653564 8.598999c1.9476318 2.7467651 5.2421265 2.4746094 9.883606 -0.81640625l37.716064 -26.867981c7.180847 -2.6316528 13.140198 -3.7717896 17.878174 -3.4204712c5.0858154 0.35491943 9.619446 2.4146729 13.600891 6.1793213l-5.7018433 4.23053c-2.284668 1.7450562 -3.8635864 2.927185 -4.7367554 3.5462646c-4.5494995 3.225891 -5.9783936 6.0319214 -4.286499 8.41803c1.8295898 2.5803223 5.685425 1.9310303 11.567505 -1.947876c0.8468628 -0.55877686 2.465149 -1.6853638 4.8547974 -3.3797607c5.652466 -4.0079346 9.486877 -7.560669 11.503235 -10.658142c2.0163574 -3.0974731 2.2277832 -5.7698975 0.63427734 -8.017273z" fill-rule="evenodd"/><path stroke="#000000" stroke-width="1.0" stroke-linejoin="round" stroke-linecap="butt" d="m783.3896 910.9778c-0.94433594 -1.3317871 -2.5419922 -1.9293213 -4.79303 -1.7924805c-2.2510376 0.13677979 -4.479431 0.9871826 -6.6853027 2.5512695c-2.2058105 1.5640869 -3.7457275 3.38562 -4.619629 5.4645996c-0.87390137 2.0789185 -0.8387451 3.7843018 0.10559082 5.116089c0.9442749 1.3317871 2.5354004 1.920044 4.7733154 1.7647705c2.2444458 -0.14605713 4.4696045 -1.0010986 6.675415 -2.5651855c2.2058716 -1.5640869 3.7490234 -3.3809814 4.6295166 -5.4506836c0.8870239 -2.0604858 0.85839844 -3.7565918 -0.085876465 -5.088379zm-33.64789 21.794373c-0.84594727 -1.1930542 -2.1844482 -1.7171631 -4.015442 -1.5724487c-1.8244629 0.1539917 -3.770691 0.96417236 -5.838684 2.430481c-4.319763 3.0629883 -9.810181 6.7475586 -16.471313 11.05365c-6.645752 4.295288 -12.128479 7.9744263 -16.448303 11.037415c-2.7572632 1.9550781 -6.852783 4.928528 -12.286499 8.920288c-5.411865 3.9902344 -9.496399 6.9628296 -12.253723 8.917969c-2.0220337 1.4337158 -3.4075317 2.985962 -4.156555 4.6566772c-0.74243164 1.6799927 -0.69073486 3.116516 0.1552124 4.3095703c0.8656006 1.2208252 2.2073364 1.7495728 4.0252686 1.5863647c1.8179321 -0.16326904 3.737915 -0.96173096 5.7598877 -2.3955078c2.7573242 -1.9550781 6.841919 -4.9277344 12.253723 -8.917908c5.433716 -3.9917603 9.529236 -6.96521 12.28656 -8.920349c4.319763 -3.0629272 9.802551 -6.7420654 16.448303 -11.0373535c6.661072 -4.3061523 12.151489 -7.9907227 16.471252 -11.05365c2.0679932 -1.4663086 3.4732056 -3.0394897 4.2156982 -4.7194824c0.74902344 -1.6707764 0.7005615 -3.1026611 -0.14538574 -4.2957153z" fill-rule="evenodd"/><path stroke="#000000" stroke-width="1.0" stroke-linejoin="round" stroke-linecap="butt" d="m770.5131 949.5026c-2.0066528 -2.830017 -8.225891 -0.5466919 -18.657715 6.8500977c-2.4815674 1.7595825 -6.066162 4.4958496 -10.753784 8.208801c-4.6810303 3.722168 -8.23938 6.4467773 -10.674988 8.173767c-2.7573242 1.9550781 -6.9785156 4.718811 -12.663574 8.291199c-5.6850586 3.5723877 -9.90625 6.3361206 -12.663513 8.29126c-11.810486 8.374268 -16.604187 14.129028 -14.381165 17.264282c0.8065796 1.1375122 2.1516724 1.6709595 4.035095 1.6001587c1.8900757 -0.061462402 3.7771606 -0.7602539 5.661316 -2.0962524c1.1029663 -0.7819824 2.8001099 -2.1868896 5.0914917 -4.2147217c2.2979736 -2.0184937 4.1362915 -3.5165405 5.5149536 -4.4940796c2.5734863 -1.8247681 6.6567993 -4.4907837 12.249939 -7.997986c5.5931396 -3.5072021 9.768372 -6.2383423 12.525696 -8.193481c2.480774 -0.29968262 4.4299927 -0.6185913 5.8477173 -0.9567261l12.581177 -1.5408325c4.7252197 -0.3484497 8.511658 -0.07293701 11.359375 0.8265381c-2.1212158 2.7548218 -5.6173706 5.859253 -10.488647 9.313293c-5.560547 3.942749 -13.53949 10.107544 -23.936829 18.494446c-10.375427 8.385254 -18.343445 14.549255 -23.904053 18.492065c-2.0219727 1.4337158 -3.4151611 2.991333 -4.1795044 4.6729736c-0.7730713 1.7017822 -0.73669434 3.1490479 0.10925293 4.342163c0.84594727 1.1929932 2.1964722 1.7016602 4.0515747 1.526001c1.8463135 -0.15563965 3.7805176 -0.9503174 5.8025513 -2.3840332c4.7333374 -3.3562012 10.543579 -7.8721924 17.430725 -13.5477295l17.519714 -14.298706c4.201782 -3.2294922 8.472351 -6.3618164 12.811829 -9.397034c2.1986084 -0.30810547 5.57489 -0.07531738 10.128906 0.6983032c4.882141 0.7494507 7.687134 1.6374512 8.415039 2.6640625c0.78692627 1.1098022 -0.5531616 3.6026611 -4.0202637 7.4786377c-2.560852 2.8165283 -5.32843 5.487671 -8.302551 8.013489l-20.365845 16.566956c-8.836853 7.0163574 -15.605835 12.566406 -20.306763 16.650146c-3.7226562 3.2232666 -4.777405 5.972534 -3.1642456 8.247681c0.84594727 1.1929932 2.2073975 1.7495117 4.0842896 1.6695557c1.8769531 -0.080078125 3.705017 -0.8133545 5.484192 -2.1999512c17.562378 -14.2873535 30.020264 -24.621704 37.37372 -31.003174c10.688477 -8.787903 16.741882 -13.934814 18.160217 -15.440857c7.0718384 -7.5577393 8.965088 -13.65332 5.6796875 -18.286804c-1.9279175 -2.7190552 -4.4819946 -4.5355225 -7.6621094 -5.449402c-3.164856 -0.92474365 -6.965637 -0.9607544 -11.402405 -0.10803223c6.008301 -6.720215 7.4681396 -12.258362 4.3794556 -16.61438c-1.3967285 -1.9699097 -5.080017 -2.9440308 -11.049744 -2.9222412c-5.9544067 0.010864258 -11.901733 1.038208 -17.841919 3.0819702l7.178894 -5.215332c0.9650879 -0.68426514 2.4158936 -1.6087646 4.352478 -2.7733765c1.9365845 -1.1646729 3.3414307 -2.0565796 4.2145386 -2.6757202c1.8381958 -1.3033447 3.2172241 -2.9621582 4.137085 -4.9764404c0.9263916 -2.0049438 1.0059204 -3.548462 0.2387085 -4.630554z" fill-rule="evenodd"/><path stroke="#000000" stroke-width="1.0" stroke-linejoin="round" stroke-linecap="butt" d="m812.57465 1044.3247c0.3147583 0.44384766 0.524353 1.1777344 0.6288452 2.2016602c0.11102295 1.0332031 0.09387207 2.3725586 -0.0513916 4.0183105c-2.8358154 1.552124 -5.473694 3.0750732 -7.913574 4.5687256c-2.4179688 1.4921875 -4.61499 2.9388428 -6.5910645 4.339966c-6.066101 4.3011475 -14.873413 11.213135 -26.421936 20.735962c-3.8981934 0.053955078 -6.6380005 -0.10900879 -8.21936 -0.48876953c-2.9265137 -0.7183838 -5.3340454 -2.4094238 -7.2226562 -5.072998c-2.2820435 -3.2185059 -2.109436 -6.9682617 0.51782227 -11.249512c2.6273193 -4.281128 7.7092896 -9.09375 15.245911 -14.437622c7.5825806 -5.376465 15.381653 -8.564575 23.397278 -9.564453c8.037415 -1.0014648 13.580811 0.64819336 16.630127 4.9487305zm11.817444 -9.192383c-4.5444336 -6.4091797 -12.408203 -9.123535 -23.591309 -8.143188c-11.176514 0.989624 -22.325378 5.427124 -33.446472 13.312622c-11.764526 8.341797 -19.502502 15.93396 -23.21399 22.776855c-3.9610596 7.2698975 -3.6398926 14.151123 0.96362305 20.643555c0.9639282 1.3594971 2.7767334 2.6174316 5.4382935 3.7739258c2.6463013 1.1673584 6.1085815 2.2355957 10.386841 3.204834c-1.0377808 1.6530762 -2.0560913 3.7718506 -3.0549927 6.3564453c-1.0383301 2.8209229 -1.3706665 4.494995 -0.9968872 5.022217c0.7279053 1.0266113 1.9647217 1.5046387 3.7103882 1.4343262c1.7456665 -0.0703125 3.5375977 -0.75720215 5.3757935 -2.0605469l0.994812 -1.0806885c1.2936401 -1.5843506 2.2852173 -2.7669678 2.9747314 -3.5476074c5.0233765 -5.7717285 8.447754 -9.513184 10.27301 -11.224365c2.9546509 -2.845581 7.2910767 -6.274658 13.009155 -10.287476c6.2695923 -4.4038086 11.455872 -7.9490967 15.558899 -10.635986c4.109558 -2.6777344 7.1358643 -4.4969482 9.078857 -5.4576416c1.3585205 -0.12939453 2.6582031 -0.6340332 3.8989868 -1.513794c3.6304321 -2.5742188 5.3946533 -6.6602783 5.2926025 -12.258423c-0.05670166 -4.4628906 -0.9407959 -7.901245 -2.6523438 -10.315063z" fill-rule="evenodd"/><path stroke="#000000" stroke-width="1.0" stroke-linejoin="round" stroke-linecap="butt" d="m843.67725 1088.628c0.90496826 1.2763672 1.43573 2.755371 1.5923462 4.437256c0.15661621 1.6817627 -0.08392334 3.5826416 -0.72161865 5.7026367c-11.087769 6.861206 -19.319763 11.76001 -24.696045 14.696533c-4.9694824 3.0233154 -10.712769 5.0526123 -17.22992 6.0878906c-7.107788 1.0788574 -11.655212 0.21716309 -13.642151 -2.585205c-2.1640625 -3.052002 -2.1096802 -6.5302734 0.1630249 -10.434937c2.272705 -3.9047852 6.7407837 -8.219482 13.404297 -12.944214c8.363831 -5.930542 16.171875 -9.528076 23.424133 -10.792725c8.066101 -1.3830566 13.968079 0.5611572 17.705933 5.8327637zm11.324341 -7.404175c-5.4297485 -7.657715 -13.624634 -10.936523 -24.584656 -9.836304c-10.631897 1.0759277 -22.151733 6.0128174 -34.55963 14.810791c-9.053162 6.4191895 -15.3064575 13.21582 -18.76001 20.390015c-3.4316406 7.1724854 -3.3670654 13.269653 0.19372559 18.291626c1.8886108 2.6635742 4.7129517 4.211914 8.4730835 4.6450195c3.7666626 0.44250488 8.478943 -0.21643066 14.13678 -1.9766846l0 0c-11.685669 8.160767 -20.803894 13.562866 -27.354736 16.20642c-9.845886 3.937622 -16.72638 3.291748 -20.641418 -1.9376221c-0.21343994 -0.28112793 -0.42034912 -0.56311035 -0.62072754 -0.8457031c-1.7702637 -2.496582 -3.032898 -5.050293 -3.788086 -7.6610107c-0.85595703 -2.8953857 -1.6380615 -4.8425293 -2.3463135 -5.8413086c-1.7115479 -2.4139404 -4.6123047 -2.1707764 -8.702332 0.72924805c-3.6304321 2.5742188 -4.7807007 6.0166016 -3.4508057 10.327148c0.9434204 3.0836182 2.7233276 6.470459 5.3398438 10.160645c4.4656982 6.2980957 10.015869 9.596802 16.650452 9.895874c5.486145 0.23779297 12.394226 -1.6584473 20.724243 -5.6887207c6.5248413 -3.1671143 14.4418335 -7.9260254 23.750854 -14.276489l23.840088 -15.465454c2.3764648 -1.5183105 6.961792 -4.206665 13.7561035 -8.065308c5.881775 -3.2949219 10.454041 -6.099121 13.716858 -8.412598c5.3308105 -3.7799072 7.0126343 -7.203125 5.045471 -10.269531c1.5566406 -2.4797363 2.2667236 -4.984497 2.13031 -7.5145264c-0.13647461 -2.5300293 -1.1195068 -5.085205 -2.9490967 -7.6655273z" fill-rule="evenodd"/><path stroke="#000000" stroke-width="1.0" stroke-linejoin="round" stroke-linecap="butt" d="m873.9933 1131.2378c3.0493164 4.300537 3.581665 8.947266 1.597168 13.940063c-4.501892 -0.018310547 -10.555298 -1.1047363 -18.160095 -3.2592773l-19.123596 -5.640625c9.518433 -5.081299 17.241882 -8.035156 23.170532 -8.861572c5.9439087 -0.83740234 10.115906 0.43640137 12.515991 3.8214111zm12.407898 -8.797974c-4.505127 -6.3536377 -12.516968 -8.3029785 -24.035522 -5.8477783c-10.566895 2.2390137 -21.824463 7.5946045 -33.772766 16.06665c-10.339905 7.331543 -16.877075 15.156372 -19.611511 23.474487c-2.4387207 7.5665283 -1.4350586 14.484985 3.0110474 20.755371c2.852539 4.0230713 7.3463135 7.0493164 13.481201 9.078613c7.197876 2.3596191 13.34729 1.730957 18.448303 -1.8859863c1.6083984 -1.1403809 2.7455444 -2.5235596 3.411438 -4.14917c0.68774414 -1.6273193 0.6873169 -2.9265137 -0.0012207031 -3.897583c-0.7672119 -1.0821533 -2.7184448 -1.220459 -5.8535767 -0.41503906c-3.119812 0.7944336 -6.598694 0.09240723 -10.436584 -2.1062012c-3.024414 -1.7331543 -5.215332 -3.5568848 -6.572754 -5.4714355c-2.1837158 -3.079712 -3.133484 -6.4644775 -2.8493042 -10.154419c0.29071045 -3.680664 1.7922974 -7.6501465 4.504944 -11.908447l23.749329 7.0512695c6.6796265 2.0183105 11.33844 3.1346436 13.97644 3.348877c5.991394 0.46325684 11.28479 -0.9343262 15.88031 -4.192871c6.571594 -4.659546 10.17395 -9.903198 10.807007 -15.730713c0.5078125 -4.737915 -0.87109375 -9.409912 -4.13678 -14.015625z" fill-rule="evenodd"/><path stroke="#000000" stroke-width="1.0" stroke-linejoin="round" stroke-linecap="butt" d="m848.95374 1199.6512c-1.0230103 -1.442749 -2.7311401 -2.066162 -5.1243896 -1.8702393c-2.3779297 0.1850586 -4.7387085 1.1085205 -7.0824585 2.7703857c-2.3896484 1.6943359 -4.057556 3.6275635 -5.003723 5.7994385c-0.946167 2.171875 -0.90771484 3.979248 0.115234375 5.421997c1.0033569 1.414917 2.6895752 2.039917 5.058716 1.875c2.3757324 -0.15576172 4.758423 -1.0808105 7.1481323 -2.7751465c2.343689 -1.6618652 3.989685 -3.5933838 4.9381104 -5.7946777c0.97021484 -2.2028809 0.9536743 -4.0117188 -0.049621582 -5.426758z" fill-rule="evenodd"/><path stroke="#000000" stroke-width="1.0" stroke-linejoin="round" stroke-linecap="butt" d="m921.4713 1203.0188c1.7705688 2.4970703 1.008606 5.8377686 -2.2858276 10.022217c-3.272583 4.1828613 -9.090759 9.23938 -17.454529 15.169922c-5.9282227 4.203369 -11.314209 6.8339844 -16.157898 7.891968c-5.5722656 1.1990967 -9.587952 0.064697266 -12.047058 -3.4035645c-2.1443481 -3.02417 -3.3236084 -6.732788 -3.5378418 -11.125488c11.48877 -8.14624 22.321167 -16.098022 32.497253 -23.855469c5.132019 -0.26171875 8.885742 -0.12976074 11.261108 0.39575195c3.3399658 0.7171631 5.914856 2.3520508 7.7247925 4.904663zm6.5717163 -29.739014c-1.1213379 -1.581543 -3.3327637 -1.8271484 -6.6343384 -0.73706055c-2.7632446 0.87524414 -5.776306 2.4697266 -9.039124 4.783203l-13.55072 10.546387c-8.035828 6.19812 -17.056335 12.90686 -27.061462 20.12622l-27.50409 19.501953l-27.661621 19.426147c-2.0219727 1.4337158 -3.4075317 2.9858398 -4.156555 4.656616c-0.74243164 1.6800537 -0.6906738 3.1165771 0.1552124 4.3095703c0.84594727 1.1931152 2.1811523 1.7126465 4.005615 1.5585938c1.8310547 -0.14477539 3.7575684 -0.93395996 5.779602 -2.3676758l33.00879 -23.28003c0.89019775 4.3720703 2.3189087 7.9454346 4.286255 10.719971c4.032898 5.687866 10.659973 7.826782 19.881042 6.416992c8.71582 -1.3435059 18.036804 -5.5343018 27.963135 -12.572632c10.891357 -7.7226562 18.908081 -14.970459 24.05011 -21.74353c6.494934 -8.566284 7.725891 -15.693359 3.6929321 -21.381104c-1.4360962 -2.0253906 -3.6227417 -3.6646729 -6.5599365 -4.9176025c-2.921814 -1.263794 -6.5843506 -2.1274414 -10.98761 -2.5910645c1.2341919 -0.79174805 2.612793 -1.623291 4.135742 -2.494751c1.1619263 -0.69873047 1.949707 -1.1948242 2.3632812 -1.4880371c1.8382568 -1.3033447 3.1230469 -2.7703857 3.8545532 -4.400879c0.75335693 -1.6322021 0.74645996 -2.9892578 -0.020812988 -4.071289z" fill-rule="evenodd"/><path stroke="#000000" stroke-width="1.0" stroke-linejoin="round" stroke-linecap="butt" d="m960.2569 1219.7347c-0.8262329 -1.1652832 -2.1571045 -1.6949463 -3.9924316 -1.5887451c-1.8135376 0.10449219 -3.708313 0.8574219 -5.684387 2.258545c-1.470581 1.0427246 -3.6206665 2.6367188 -6.4502563 4.7819824c-2.823059 2.154663 -4.9697876 3.753296 -6.4403687 4.7960205c-4.7333984 3.3562012 -11.441589 7.806885 -20.124573 13.352173c-8.661133 5.543579 -15.358337 9.99353 -20.091736 13.349731c-1.3786621 0.97753906 -3.3843384 2.5317383 -6.017029 4.6625977c-2.6261597 2.1400146 -4.628601 3.6988525 -6.007202 4.6763916c-2.0679932 1.4663086 -3.4797974 3.0301514 -4.2353516 4.6916504c-0.7555542 1.661499 -0.7005615 3.1026611 0.16503906 4.3234863c0.84594727 1.1929932 2.1811523 1.7125244 4.005615 1.5585938c1.8309937 -0.14477539 3.7805176 -0.9503174 5.8485107 -2.416626c1.3786621 -0.97753906 3.3876343 -2.5270996 6.0268555 -4.6486816c2.6392822 -2.121582 4.6482544 -3.6711426 6.0269165 -4.6486816c2.159851 -1.5313721 4.447693 -3.0285645 6.8635254 -4.491333c2.84906 -1.7282715 5.189392 -3.2000732 7.020935 -4.4154053c9.524719 -4.585449 17.97229 -7.573242 25.342773 -8.963379c8.118652 -1.5037842 13.279663 -0.7019043 15.483032 2.4055176c1.5738525 2.2197266 -2.602417 6.848633 -12.528687 13.886963c-1.2867432 0.9123535 -3.5056763 2.4093018 -6.6567993 4.4907227c-3.1445923 2.0906982 -5.3602295 3.5922852 -6.6469727 4.5046387c-4.687439 3.3236084 -9.581787 7.0859375 -14.683105 11.286743l-14.27002 11.869385c-4.1033325 3.368164 -5.309082 6.2453613 -3.6172485 8.63147c0.84594727 1.1929932 2.1832886 1.7318115 4.012146 1.6164551c1.8200684 -0.095336914 3.7410889 -0.8597412 5.7631226 -2.293457c3.7683105 -2.671997 8.457092 -6.4483643 14.066284 -11.328857c5.6310425 -4.882324 10.353699 -8.675659 14.167969 -11.380249l6.4402466 -4.5039062l6.962219 -4.9366455c8.377014 -6.1065674 14.30249 -11.287842 17.776306 -15.543945c5.2402954 -6.342407 6.286621 -11.733154 3.138916 -16.172485c-3.4821167 -4.9108887 -12.022644 -6.0474854 -25.621643 -3.409668l7.9766235 -5.843506c5.797058 -4.485718 7.7907104 -8.004883 5.980774 -10.557495z" fill-rule="evenodd"/><path stroke="#000000" stroke-width="1.0" stroke-linejoin="round" stroke-linecap="butt" d="m987.86 1291.9741c0.90496826 1.2762451 1.43573 2.755371 1.5923462 4.437134c0.15661621 1.6818848 -0.08392334 3.5827637 -0.72161865 5.7026367c-11.087769 6.861206 -19.319763 11.760132 -24.696045 14.696533c-4.9694824 3.0233154 -10.712769 5.0526123 -17.22992 6.0878906c-7.107788 1.0788574 -11.655212 0.21716309 -13.642151 -2.585083c-2.1640625 -3.052002 -2.1096802 -6.5303955 0.1630249 -10.435059c2.272705 -3.904663 6.7407837 -8.21936 13.404297 -12.944214c8.363831 -5.93042 16.171875 -9.527954 23.424133 -10.792725c8.066101 -1.3830566 13.968079 0.5612793 17.705933 5.8328857zm11.324341 -7.404175c-5.4297485 -7.657715 -13.624634 -10.936523 -24.584656 -9.836426c-10.631897 1.0760498 -22.151733 6.0129395 -34.55963 14.810791c-9.053162 6.4191895 -15.306519 13.215942 -18.76001 20.390015c-3.4316406 7.1724854 -3.3670654 13.269775 0.19372559 18.291626c1.8886108 2.6635742 4.7129517 4.211914 8.4730835 4.6451416c3.7666626 0.4423828 8.478943 -0.21643066 14.13678 -1.9766846l0 0c-11.685669 8.160645 -20.803894 13.562866 -27.354736 16.20642c-9.845886 3.937622 -16.72638 3.291748 -20.641418 -1.9376221c-0.21343994 -0.28125 -0.42034912 -0.56311035 -0.62072754 -0.8457031c-1.7702637 -2.496704 -3.032959 -5.050293 -3.788086 -7.6610107c-0.85595703 -2.8953857 -1.6380615 -4.8425293 -2.3463135 -5.8414307c-1.7115479 -2.4138184 -4.6123047 -2.1707764 -8.702332 0.7293701c-3.6304321 2.5740967 -4.7807007 6.0164795 -3.4508057 10.327026c0.9434204 3.0836182 2.7233276 6.470581 5.3398438 10.160645c4.4656982 6.298218 10.015869 9.596802 16.650452 9.895874c5.486145 0.23779297 12.394226 -1.6584473 20.724243 -5.6885986c6.5248413 -3.1672363 14.4418335 -7.9260254 23.750854 -14.276489l23.840088 -15.465576c2.3764648 -1.5181885 6.961792 -4.206665 13.7561035 -8.065186c5.881775 -3.2949219 10.454041 -6.099243 13.716858 -8.41272c5.3308105 -3.7797852 7.0126343 -7.203003 5.045532 -10.269531c1.5565796 -2.4796143 2.2666626 -4.984497 2.130249 -7.5145264c-0.13647461 -2.5299072 -1.1195068 -5.085083 -2.9490967 -7.6654053z" fill-rule="evenodd"/></g></svg>